<svg width="500" height="500" viewBox="0 0 500 500" fill="none" xmlns="http://www.w3.org/2000/svg">
<rect width="500" height="500" rx="150" fill="#212121"/>
<path d="M357.905 168.508C366.069 163.878 371.566 155.194 371.566 145.234C371.566 130.417 359.403 118.403 344.397 118.403C339.629 118.39 334.942 119.629 330.803 121.996C326.665 124.364 323.221 127.776 320.816 131.893C317.839 126.743 313.556 122.47 308.4 119.504C303.244 116.538 297.397 114.984 291.448 115C272.777 115 257.649 129.943 257.649 148.375C257.649 166.807 272.777 181.75 291.448 181.75C293.046 181.75 294.612 181.637 296.156 181.425L291.376 186.146L281.131 186.317L280.955 196.431L278.022 199.329L277.236 198.548C276.109 197.447 274.595 196.831 273.019 196.831C271.443 196.831 269.929 197.447 268.801 198.548L268.273 199.067C267.722 199.612 267.285 200.261 266.986 200.976C266.688 201.691 266.534 202.458 266.534 203.233C266.534 204.008 266.688 204.775 266.986 205.49C267.285 206.205 267.722 206.854 268.273 207.398L269.068 208.179L143.615 332.061L146.079 334.489L142.753 337.77C139.233 336.119 135.473 336.286 133.19 338.538C130.021 341.665 130.915 347.623 135.18 351.838C139.449 356.058 145.479 356.938 148.647 353.81C150.935 351.554 151.098 347.844 149.428 344.364L152.75 341.078L155.209 343.511L172.544 326.388L179.747 333.505L160.882 352.127L168.853 359.993L173.772 355.137L180.916 362.191L175.997 367.047L179.987 370.983L180.33 371.33L194.979 385.791L208.56 372.373L193.919 357.917L203.41 348.548L217.699 362.66L227.772 352.709L213.483 338.596L222.97 329.227L237.963 344.035L251.547 330.617L236.555 315.809L232.227 311.531L227.298 316.387L220.158 309.333L225.078 304.477L217.107 296.61L198.251 315.232L191.048 308.123L280.662 219.629L281.447 220.414C282.575 221.515 284.089 222.131 285.665 222.131C287.241 222.131 288.754 221.515 289.882 220.414L290.41 219.895C290.961 219.35 291.399 218.702 291.697 217.987C291.996 217.272 292.15 216.505 292.15 215.73C292.15 214.955 291.996 214.188 291.697 213.473C291.399 212.757 290.961 212.109 290.41 211.564L289.616 210.779L292.55 207.886L302.795 207.714L302.962 197.6L307.75 192.875C307.527 194.416 307.415 195.971 307.416 197.528C307.416 215.96 322.553 230.903 341.211 230.903C359.868 230.903 375.005 215.955 375.005 197.523C375.005 185.085 368.123 174.254 357.905 168.508ZM341.251 219.769C338.291 219.77 335.359 219.187 332.624 218.054C329.889 216.921 327.404 215.261 325.311 213.167C323.218 211.074 321.558 208.588 320.426 205.853C319.293 203.118 318.711 200.186 318.712 197.226C318.713 192.586 320.158 188.063 322.847 184.282L317.205 178.681L319.534 176.379C323.05 178.027 326.814 177.864 329.097 175.612C332.261 172.484 331.381 166.523 327.107 162.312C322.842 158.092 316.812 157.216 313.64 160.344C311.356 162.592 311.189 166.31 312.863 169.786L310.535 172.087L304.893 166.464C301.028 169.377 296.324 170.959 291.485 170.972C287.029 170.972 282.674 169.652 278.969 167.178C275.264 164.704 272.375 161.187 270.667 157.072C268.959 152.957 268.51 148.429 269.375 144.058C270.24 139.688 272.38 135.672 275.527 132.517C278.673 129.363 282.683 127.211 287.052 126.335C291.42 125.459 295.95 125.897 300.069 127.594C304.189 129.291 307.713 132.17 310.196 135.869C312.68 139.568 314.012 143.92 314.023 148.375H327.969C327.794 147.429 327.699 146.471 327.685 145.509C327.683 142.056 328.749 138.687 330.735 135.863C332.721 133.038 335.532 130.896 338.782 129.73C342.032 128.564 345.563 128.43 348.892 129.347C352.221 130.263 355.185 132.186 357.38 134.852C359.574 137.518 360.892 140.797 361.152 144.24C361.412 147.683 360.602 151.123 358.833 154.088C357.064 157.054 354.422 159.4 351.268 160.806C348.115 162.213 344.604 162.611 341.215 161.946V174.691L341.251 174.687C344.211 174.686 347.142 175.269 349.877 176.401C352.612 177.534 355.097 179.194 357.19 181.287C359.283 183.38 360.943 185.865 362.076 188.6C363.208 191.335 363.791 194.266 363.79 197.226C363.792 200.186 363.21 203.118 362.078 205.854C360.946 208.589 359.286 211.075 357.193 213.169C355.1 215.262 352.614 216.923 349.879 218.055C347.144 219.188 344.212 219.77 341.251 219.769Z" fill="#FF0000"/>
<path d="M141.099 168.437C132.935 163.813 127.438 155.141 127.438 145.194C127.438 130.397 139.601 118.399 154.607 118.399C159.375 118.385 164.062 119.623 168.201 121.987C172.339 124.351 175.783 127.759 178.188 131.871C181.165 126.728 185.448 122.46 190.604 119.498C195.76 116.536 201.607 114.984 207.556 115C226.226 115 241.355 129.923 241.355 148.331C241.355 166.738 226.226 181.662 207.556 181.662C205.958 181.662 204.392 181.549 202.848 181.337L207.628 186.052L217.873 186.223L218.049 196.323L220.982 199.217L221.767 198.437C222.895 197.338 224.409 196.723 225.985 196.723C227.561 196.723 229.075 197.338 230.203 198.437L230.731 198.956C231.282 199.5 231.719 200.148 232.018 200.862C232.316 201.576 232.47 202.342 232.47 203.116C232.47 203.89 232.316 204.656 232.018 205.37C231.719 206.084 231.282 206.732 230.731 207.276L229.936 208.056L355.389 331.774L352.925 334.199L356.251 337.475C359.771 335.826 363.531 335.992 365.814 338.242C368.983 341.365 368.089 347.315 363.824 351.524C359.555 355.738 353.525 356.617 350.357 353.494C348.069 351.24 347.906 347.535 349.576 344.06L346.254 340.779L343.795 343.208L326.46 326.108L319.256 333.216L338.122 351.813L330.151 359.669L325.232 354.819L318.088 361.864L323.007 366.713L319.017 370.644L318.674 370.991L304.025 385.432L290.444 372.032L305.085 357.595L295.594 348.239L281.305 362.333L271.232 352.394L285.521 338.3L276.034 328.943L261.041 343.731L247.456 330.331L262.449 315.543L266.777 311.27L271.706 316.12L278.846 309.075L273.926 304.226L281.896 296.37L300.752 314.966L307.956 307.868L218.342 219.49L217.557 220.275C216.429 221.374 214.915 221.989 213.339 221.989C211.763 221.989 210.25 221.374 209.122 220.275L208.594 219.756C208.043 219.212 207.605 218.564 207.307 217.85C207.008 217.136 206.854 216.37 206.854 215.596C206.854 214.822 207.008 214.056 207.307 213.342C207.605 212.628 208.043 211.98 208.594 211.436L209.388 210.652L206.454 207.763L196.209 207.591L196.042 197.491L191.254 192.772C191.477 194.311 191.589 195.864 191.588 197.419C191.588 215.826 176.451 230.749 157.793 230.749C139.136 230.749 123.999 215.822 123.999 197.414C123.999 184.992 130.881 174.175 141.099 168.437ZM157.753 219.63C160.713 219.631 163.645 219.049 166.38 217.918C169.115 216.786 171.6 215.128 173.693 213.037C175.786 210.946 177.446 208.464 178.578 205.733C179.71 203.001 180.293 200.073 180.291 197.117C180.291 192.484 178.846 187.966 176.157 184.19L181.799 178.597L179.47 176.298C175.954 177.943 172.19 177.781 169.907 175.532C166.743 172.408 167.623 166.454 171.897 162.249C176.162 158.035 182.191 157.16 185.364 160.284C187.648 162.529 187.815 166.242 186.141 169.713L188.469 172.012L194.111 166.396C197.975 169.305 202.68 170.884 207.519 170.898C211.975 170.898 216.33 169.58 220.035 167.109C223.74 164.638 226.629 161.126 228.337 157.017C230.044 152.907 230.494 148.384 229.629 144.02C228.764 139.655 226.624 135.644 223.477 132.494C220.331 129.344 216.321 127.195 211.952 126.32C207.584 125.445 203.054 125.882 198.935 127.577C194.815 129.272 191.291 132.148 188.808 135.842C186.324 139.535 184.992 143.882 184.981 148.331H171.035C171.21 147.387 171.305 146.429 171.319 145.469C171.321 142.02 170.255 138.656 168.269 135.835C166.283 133.014 163.472 130.875 160.222 129.71C156.972 128.546 153.441 128.412 150.112 129.328C146.783 130.243 143.819 132.164 141.624 134.826C139.43 137.488 138.112 140.763 137.852 144.201C137.592 147.64 138.402 151.075 140.171 154.036C141.94 156.998 144.582 159.341 147.736 160.746C150.889 162.151 154.4 162.548 157.789 161.884V174.612L157.753 174.608C154.793 174.607 151.862 175.189 149.127 176.32C146.392 177.451 143.907 179.109 141.814 181.199C139.721 183.289 138.061 185.771 136.928 188.502C135.796 191.233 135.213 194.161 135.214 197.117C135.212 200.073 135.794 203.001 136.926 205.733C138.058 208.465 139.718 210.948 141.811 213.039C143.904 215.129 146.39 216.788 149.125 217.919C151.86 219.05 154.792 219.631 157.753 219.63Z" fill="#FF0000"/>
</svg>
