<svg width="741" height="598" viewBox="0 0 741 598" fill="none" xmlns="http://www.w3.org/2000/svg">
<path d="M421.951 528.308C416.829 521.136 409.896 515.889 401.18 513.925C393.579 512.212 385.764 512.504 378.038 512.564L280.346 513.317C271.979 513.382 263.957 520.63 264.346 529.317C264.731 537.931 271.377 545.386 280.346 545.317C308.963 545.096 337.58 544.876 366.197 544.655C372.943 544.603 379.694 544.481 386.441 544.504C387.956 544.508 389.465 544.588 390.978 544.606C391.345 544.61 391.61 544.606 391.797 544.598C391.844 544.613 391.883 544.626 391.944 544.643C392.734 544.859 393.544 545.009 394.338 545.215C394.06 545.223 394.853 545.718 395.252 545.886C395.306 545.994 395.423 546.185 395.618 546.481C395.89 546.991 396.695 548.54 396.728 548.491C397.938 551.55 398.936 554.688 399.715 557.884C401.575 564.931 401.983 566.404 402.251 573.016C402.589 581.368 409.368 589.413 418.251 589.016C426.63 588.64 434.614 581.973 434.251 573.016C433.64 557.921 430.99 540.966 421.951 528.308Z" fill="#E6E6E6"/>
<path d="M286.087 564.412C284.252 553.293 282.452 542.166 280.582 531.053C278.684 519.778 274.807 509.454 266.034 502.055C263.689 500.078 261.259 498.232 258.818 496.392C257.959 495.746 257.103 495.098 256.254 494.437C256.204 494.397 256.171 494.372 256.127 494.338C256.034 494.258 255.922 494.163 255.772 494.035C252.115 490.941 248.582 487.708 245.216 484.272C242.228 481.221 239.369 478.039 236.642 474.727C235.96 473.9 235.287 473.066 234.623 472.224C234.509 472.079 233.894 471.284 233.488 470.765C233.111 470.246 232.422 469.308 232.307 469.144C231.531 468.047 230.769 466.94 230.02 465.822C224.924 458.187 220.512 450.117 216.834 441.707C216.469 440.872 216.113 440.033 215.765 439.19C215.672 438.932 215.551 438.601 215.391 438.161C214.65 436.122 213.91 434.087 213.232 432.024C211.792 427.643 210.555 423.198 209.519 418.688C209.006 416.461 208.545 414.223 208.135 411.973C207.924 410.816 207.726 409.657 207.542 408.495C207.512 408.302 207.332 407.049 207.226 406.341C207.148 405.629 207.002 404.369 206.983 404.175C206.866 403.004 206.762 401.832 206.671 400.658C206.466 398.018 206.328 395.374 206.256 392.725C206.133 388.017 206.217 383.31 206.509 378.603C206.675 375.958 206.911 373.321 207.202 370.688C207.22 370.526 207.233 370.397 207.246 370.281C207.264 370.164 207.284 370.03 207.309 369.864C207.524 368.409 207.751 366.956 208.004 365.508C208.964 360.008 210.212 354.563 211.743 349.194C212.468 346.655 213.256 344.137 214.106 341.639C214.485 340.53 214.876 339.425 215.279 338.325C215.253 338.396 216.461 335.309 216.477 335.206C221.272 323.877 229.115 313.549 229.126 300.679C229.133 291.966 221.761 283.619 213.126 284.022C208.82 284.184 204.745 286.011 201.761 289.118C198.776 292.226 197.114 296.371 197.126 300.679C197.126 300.875 197.125 301.042 197.124 301.204C197.044 301.475 196.976 301.701 196.916 301.902C195.981 303.934 194.835 305.864 193.809 307.846C190.998 313.269 188.599 318.871 186.32 324.554C182.59 333.81 179.734 343.395 177.791 353.183C173.568 374.629 173.24 396.66 176.823 418.223C183.027 456.036 203.485 492.232 231.926 516.562C234.395 518.673 236.923 520.714 239.475 522.713C240.531 523.54 241.596 524.352 242.667 525.159C243.172 525.54 245.268 527.193 244.346 526.392C246.329 528.084 247.163 528.935 247.672 530.182C247.746 530.469 247.847 530.859 247.983 531.392C248.342 532.798 248.683 534.2 248.966 535.625C251.441 548.076 253.162 560.737 255.23 573.269C256.651 581.879 267.252 587.483 274.912 584.903C283.828 581.899 287.61 573.638 286.087 564.412Z" fill="#E6E6E6"/>
<path d="M423.569 596.707C416.85 596.724 410.398 594.076 405.628 589.342C400.859 584.608 398.162 578.176 398.129 571.457V553.205C379.02 555.344 313.586 554.849 294.83 551.835V570.727C294.779 577.441 292.077 583.863 287.311 588.593C282.546 593.323 276.104 595.977 269.389 595.977C262.675 595.977 256.233 593.323 251.468 588.593C246.702 583.863 244 577.441 243.949 570.727V533.635C218.545 519.522 197.367 498.886 182.601 473.855C167.834 448.825 160.015 420.308 159.949 391.247C159.949 341.417 182.532 294.932 221.908 263.713C247.51 243.346 278.615 231.097 311.23 228.54C315.657 228.193 320.111 228.017 324.469 228.017C339.822 228.017 409.088 230.388 426.467 235.388L466.095 196.067C466.678 195.481 467.421 195.082 468.232 194.92C469.042 194.759 469.882 194.842 470.645 195.16C471.413 195.466 472.072 195.997 472.533 196.683C472.994 197.37 473.237 198.18 473.229 199.007V205.259L480.946 197.616C481.527 197.03 482.27 196.63 483.08 196.468C483.89 196.307 484.73 196.39 485.492 196.708C486.261 197.014 486.92 197.545 487.382 198.232C487.844 198.918 488.087 199.729 488.079 200.556V270.421C507.964 288.348 523.12 310.902 532.203 336.087C541.287 361.271 544.017 388.307 540.153 414.799C536.289 441.291 525.95 466.421 510.051 487.961C494.153 509.502 473.186 526.788 449.009 538.287V571.457C448.976 578.176 446.279 584.608 441.51 589.342C436.741 594.076 430.289 596.724 423.569 596.707ZM400.129 550.937V571.457C400.18 577.64 402.672 583.553 407.062 587.908C411.452 592.263 417.386 594.706 423.569 594.706C429.753 594.706 435.686 592.263 440.077 587.908C444.467 583.553 446.959 577.64 447.009 571.457V537.024L447.58 536.753C474.708 523.88 497.737 503.741 514.111 478.572C534.976 446.453 543.653 407.926 538.572 369.964C533.491 332.002 514.988 297.113 486.412 271.612L486.079 271.313V200.556C486.087 200.126 485.962 199.705 485.722 199.348C485.482 198.991 485.139 198.716 484.738 198.561C484.339 198.39 483.899 198.344 483.474 198.429C483.049 198.513 482.659 198.724 482.356 199.034L471.229 210.054V199.007C471.236 198.577 471.112 198.155 470.872 197.798C470.632 197.441 470.288 197.167 469.888 197.011C469.488 196.841 469.047 196.795 468.621 196.88C468.196 196.965 467.806 197.177 467.502 197.488L427.026 237.651L426.451 237.471C410.295 232.414 339.938 230.017 324.469 230.017C320.163 230.017 315.762 230.191 311.388 230.534C279.169 233.06 248.441 245.16 223.151 265.28C184.256 296.118 161.949 342.031 161.949 391.247C162.016 420.051 169.793 448.312 184.474 473.093C199.155 497.875 220.204 518.274 245.433 532.172L245.949 532.457V570.727C246.001 576.91 248.493 582.822 252.883 587.176C257.274 591.529 263.206 593.972 269.389 593.972C275.572 593.972 281.505 591.529 285.895 587.176C290.286 582.822 292.778 576.91 292.83 570.727V549.441L294.014 549.664C310.87 552.835 381.846 553.335 398.999 551.085L400.129 550.937Z" fill="#919191"/>
<path d="M287.999 119.12L177.259 152.4C173.737 153.462 170.78 155.88 169.039 159.121C167.298 162.362 166.915 166.162 167.974 169.685C169.033 173.209 171.447 176.168 174.686 177.912C177.925 179.657 181.725 180.044 185.249 178.99L282.159 149.86L284.189 149.249C284.6 138.788 287.438 128.565 292.479 119.389C291.846 119.105 291.17 118.929 290.479 118.869C289.644 118.789 288.801 118.874 287.999 119.12Z" fill="#FF0000"/>
<path d="M183.332 186.082C181.862 186.079 180.43 185.613 179.239 184.751C178.048 183.89 177.158 182.676 176.694 181.281L169.77 160.385C169.48 159.512 169.366 158.591 169.433 157.674C169.499 156.757 169.746 155.863 170.159 155.041C170.571 154.22 171.142 153.487 171.837 152.886C172.533 152.285 173.34 151.827 174.213 151.538L264.344 121.668C265.217 121.379 266.138 121.264 267.054 121.331C267.971 121.398 268.866 121.644 269.687 122.057C270.509 122.469 271.241 123.039 271.842 123.735C272.443 124.43 272.901 125.237 273.191 126.11L280.115 147.006C280.692 148.725 280.576 150.6 279.793 152.235C279.011 153.87 277.622 155.136 275.922 155.765C275.839 155.796 275.755 155.826 275.67 155.854L185.541 185.723C184.829 185.96 184.083 186.081 183.332 186.082Z" fill="#919191"/>
<path d="M352.129 82.0078C333.938 82.0148 316.463 89.1 303.404 101.764C290.345 114.427 282.725 131.676 282.159 149.858C282.139 150.568 282.129 151.288 282.129 152.008C282.129 165.853 286.234 179.386 293.926 190.898C301.618 202.409 312.55 211.381 325.341 216.679C338.132 221.978 352.207 223.364 365.785 220.663C379.364 217.962 391.837 211.295 401.626 201.505C411.416 191.716 418.083 179.243 420.784 165.664C423.485 152.085 422.099 138.011 416.8 125.22C411.502 112.429 402.53 101.497 391.019 93.8049C379.507 86.1132 365.974 82.0078 352.129 82.0078ZM352.129 220.008C334.1 219.989 316.815 212.819 304.066 200.07C291.318 187.322 284.148 170.037 284.129 152.008C284.129 151.078 284.149 150.158 284.189 149.248C284.73 135.928 289.175 123.06 296.971 112.246C304.767 101.432 315.57 93.1479 328.036 88.424C340.502 83.7001 354.082 82.7448 367.086 85.6769C380.091 88.6089 391.947 95.299 401.18 104.915C410.413 114.532 416.616 126.65 419.017 139.763C421.418 152.876 419.911 166.406 414.685 178.67C409.458 190.933 400.742 201.39 389.619 208.74C378.497 216.09 365.46 220.008 352.129 220.008Z" fill="#919191"/>
<path d="M411.129 152.008C411.129 167.655 404.913 182.662 393.848 193.727C382.784 204.792 367.777 211.008 352.129 211.008C336.481 211.008 321.474 204.792 310.41 193.727C299.345 182.662 293.129 167.655 293.129 152.008C293.129 150.138 293.219 148.298 293.389 146.478C294.81 131.376 301.994 117.402 313.448 107.457C324.901 97.5125 339.745 92.3612 354.897 93.0728C370.049 93.7845 384.344 100.304 394.816 111.279C405.287 122.253 411.129 136.839 411.129 152.008Z" fill="#E6E6E6"/>
<path d="M369.698 155.928C368.268 154.048 366.386 152.559 364.228 151.598C361.566 150.476 358.817 149.573 356.008 148.898V132.838C360.325 133.489 364.375 135.335 367.698 138.168L370.958 131.218C369.083 129.548 366.93 128.218 364.598 127.288C362.012 126.241 359.298 125.545 356.528 125.218V117.078H348.978V125.298C346.063 125.626 343.25 126.57 340.728 128.068C338.45 129.417 336.531 131.297 335.138 133.548C333.808 135.745 333.118 138.27 333.148 140.838C333.018 143.621 333.824 146.367 335.438 148.638C336.923 150.604 338.885 152.16 341.138 153.158C343.842 154.313 346.639 155.24 349.498 155.928V171.318C344.403 170.934 339.548 168.997 335.588 165.768L332.328 172.728C334.542 174.559 337.061 175.987 339.768 176.948C342.735 178.01 345.834 178.656 348.978 178.868V186.938H356.528V178.718C360.721 178.26 364.654 176.457 367.738 173.578C369.096 172.276 370.169 170.706 370.888 168.967C371.608 167.228 371.958 165.359 371.918 163.478C372.043 160.784 371.262 158.126 369.698 155.928ZM349.498 147.198C347.659 146.64 345.949 145.723 344.468 144.498C343.881 143.976 343.417 143.33 343.109 142.608C342.802 141.885 342.658 141.103 342.688 140.318C342.633 138.537 343.288 136.807 344.508 135.508C345.86 134.145 347.605 133.24 349.498 132.918V147.198ZM360.748 168.478C359.472 169.786 357.811 170.652 356.008 170.948V157.708C357.731 158.171 359.344 158.977 360.748 160.078C361.28 160.533 361.703 161.101 361.985 161.742C362.268 162.383 362.402 163.079 362.378 163.778C362.447 165.494 361.865 167.173 360.748 168.478Z" fill="#FF0000"/>
<path d="M186.545 270.772C184.999 270.77 183.498 270.257 182.273 269.314C181.048 268.371 180.168 267.05 179.77 265.556L176 251.286C175.528 249.493 175.787 247.585 176.72 245.982C177.652 244.379 179.183 243.211 180.975 242.735L299.916 211.305C301.711 210.837 303.618 211.099 305.22 212.033C306.823 212.967 307.99 214.498 308.467 216.291L311.661 228.381L311.062 228.427C280.558 230.799 251.371 241.859 226.955 260.298L226.781 260.382L188.321 270.542C187.742 270.695 187.145 270.772 186.545 270.772Z" fill="#919191"/>
<path d="M166.849 341.257C152.897 339.196 139.553 334.151 127.727 326.465C121.868 322.66 116.445 318.224 111.553 313.237C106.725 308.312 102.107 302.716 99.7154 296.158C97.4147 290.09 97.5333 283.371 100.047 277.388C102.526 271.442 107.261 266.722 113.215 264.263C119.205 261.874 126.442 261.619 132.271 264.235C135.049 265.452 137.452 267.387 139.235 269.84C140.064 270.972 140.678 272.245 141.045 273.599C141.387 274.825 141.418 276.117 141.136 277.358C140.794 278.597 140.191 279.748 139.368 280.735C138.545 281.723 137.52 282.522 136.362 283.081C133.814 284.388 131.053 285.23 128.21 285.567C125.35 285.957 121.241 286.312 118.942 284.016C118.469 283.562 118.096 283.013 117.849 282.405C117.676 281.94 117.617 281.44 117.677 280.947C117.643 281.164 117.816 280.475 117.806 280.502C117.769 280.604 117.612 280.853 117.836 280.471C117.906 280.345 117.984 280.224 118.069 280.108C117.993 280.206 117.826 280.37 118.124 280.089C118.37 279.819 118.687 279.624 119.038 279.524C119.177 279.484 119.317 279.452 119.456 279.414C119.809 279.318 119.104 279.419 119.465 279.408C119.604 279.403 119.745 279.407 119.884 279.4C120.238 279.385 119.535 279.304 119.874 279.389C120.006 279.422 120.136 279.455 120.266 279.496C120.548 279.584 120.066 279.289 120.258 279.51C120.482 279.769 120.022 279.258 120.277 279.509C120.404 279.633 120.523 279.765 120.635 279.903C121.076 280.339 121.672 280.583 122.292 280.583C122.913 280.583 123.508 280.339 123.95 279.903C124.376 279.457 124.614 278.863 124.614 278.246C124.614 277.628 124.376 277.035 123.95 276.588C121.638 273.723 117.073 274.431 114.734 276.852C111.752 279.941 112.933 284.836 115.834 287.53C119.118 290.581 123.768 290.793 127.992 290.282C131.562 289.94 135.041 288.957 138.261 287.38C141.462 285.807 143.964 283.103 145.285 279.791C145.882 278.024 146.096 276.15 145.914 274.294C145.732 272.437 145.158 270.64 144.229 269.023C140.5 262.011 132.778 258.417 125.145 257.794C121.215 257.486 117.263 257.961 113.518 259.19C109.773 260.42 106.309 262.38 103.326 264.957C97.5769 270.133 94.0368 277.32 93.4377 285.032C92.7714 293.028 95.8738 300.793 100.397 307.246C105.132 313.803 110.783 319.647 117.176 324.6C129.676 334.579 144.338 341.493 159.988 344.79C161.85 345.175 163.722 345.504 165.603 345.778C166.202 345.923 166.833 345.834 167.369 345.53C167.905 345.226 168.304 344.729 168.487 344.141C168.647 343.541 168.566 342.903 168.259 342.363C167.953 341.824 167.446 341.426 166.849 341.257Z" fill="#919191"/>
<path d="M390.232 239.382C369.79 239.094 349.412 239.612 329.099 240.938C322.156 241.392 316.148 243.846 316.148 247.97C316.148 251.419 322.108 255.459 329.099 255.002C349.402 253.677 369.78 253.158 390.232 253.446C406.906 253.681 406.896 239.617 390.232 239.382Z" fill="#CCCCCC"/>
<path d="M360.02 252.748C357.811 252.748 305.914 252.665 305.914 245.497C305.914 238.329 357.811 238.246 360.02 238.246C362.229 238.246 414.125 238.329 414.125 245.497C414.125 252.665 362.229 252.748 360.02 252.748ZM307.943 245.497C309.364 247.67 328.44 250.748 360.02 250.748C391.6 250.748 410.676 247.67 412.096 245.497C410.676 243.324 391.6 240.246 360.02 240.246C328.44 240.246 309.364 243.324 307.943 245.497Z" fill="#919191"/>
<path d="M524.674 441.201C536.162 440.882 550.46 440.483 561.475 432.437C564.755 429.942 567.45 426.761 569.371 423.116C571.292 419.47 572.392 415.449 572.595 411.333C572.82 404.979 570.524 399.432 566.131 395.719C560.377 390.858 551.977 389.718 542.923 392.378L552.303 323.83L545.417 322.887L534.39 403.474L540.14 400.835C546.807 397.777 555.958 396.221 561.644 401.027C563.041 402.283 564.128 403.845 564.823 405.59C565.518 407.335 565.801 409.217 565.65 411.089C565.481 414.152 564.655 417.143 563.227 419.858C561.799 422.573 559.803 424.949 557.375 426.824C548.803 433.085 537.406 433.892 524.48 434.254L524.674 441.201Z" fill="#919191"/>
<path d="M505.635 329.742H468.203V336.692H505.635V329.742Z" fill="#919191"/>
<path d="M203.487 302.738C201.821 302.732 200.211 302.134 198.946 301.05C197.681 299.965 196.843 298.466 196.583 296.82L194.298 282.239C194.013 280.405 194.467 278.532 195.56 277.033C196.653 275.533 198.297 274.528 200.13 274.239L321.662 255.197C323.496 254.911 325.368 255.365 326.867 256.458C328.367 257.552 329.372 259.195 329.661 261.029L331.945 275.611C332.231 277.444 331.777 279.317 330.684 280.816C329.591 282.316 327.947 283.321 326.114 283.61L204.582 302.652C204.22 302.709 203.854 302.737 203.487 302.738Z" fill="#919191"/>
<path d="M153.188 131.855C181.354 131.855 204.188 109.022 204.188 80.8555C204.188 52.6889 181.354 29.8555 153.188 29.8555C125.021 29.8555 102.188 52.6889 102.188 80.8555C102.188 109.022 125.021 131.855 153.188 131.855Z" fill="#FF0000"/>
<path d="M182.065 94.049C183.695 93.4789 185.184 92.5664 186.432 91.3729C187.258 90.5219 187.887 89.5007 188.277 88.3809C188.666 87.261 188.806 86.0695 188.687 84.8899C188.618 84.0491 188.355 83.2357 187.919 82.5134C187.483 81.791 186.886 81.1792 186.175 80.7258C184.329 79.5907 181.89 79.6336 179.428 80.7751L179.144 60.8672L177.144 60.8956L177.478 84.2995L179 83.301C180.766 82.1451 183.302 81.3069 185.127 82.4294C185.578 82.7266 185.955 83.1239 186.228 83.5903C186.501 84.0568 186.662 84.5799 186.7 85.119C186.784 85.9978 186.678 86.8844 186.389 87.7185C186.099 88.5526 185.634 89.3146 185.024 89.9526C182.856 92.1037 179.647 92.8245 175.984 93.4837L176.339 95.4519C178.286 95.1563 180.202 94.6868 182.065 94.049Z" fill="#919191"/>
<path d="M199.736 59.473L189.086 61.0859L189.385 63.0631L200.036 61.4502L199.736 59.473Z" fill="#919191"/>
<path d="M166.119 64.5629L155.469 66.1758L155.768 68.153L166.418 66.5401L166.119 64.5629Z" fill="#919191"/>
<path d="M186.894 301.845C185.06 301.841 183.271 301.279 181.764 300.233C180.257 299.187 179.105 297.707 178.46 295.99L143.297 201.821C138.999 190.272 139.458 177.489 144.573 166.278C149.688 155.067 159.041 146.342 170.581 142.019L199.173 131.342C200.278 130.927 201.455 130.734 202.635 130.775C203.816 130.816 204.977 131.09 206.051 131.581C207.122 132.06 208.087 132.747 208.89 133.604C209.693 134.46 210.317 135.467 210.726 136.567L275.863 259.551C276.285 260.66 276.485 261.842 276.449 263.028C276.414 264.214 276.144 265.382 275.655 266.464C275.167 267.545 274.469 268.52 273.603 269.331C272.736 270.142 271.718 270.773 270.606 271.189L190.04 301.273C189.034 301.65 187.968 301.844 186.894 301.845Z" fill="#919191"/>
<path d="M190.496 134.582L255.125 221.008L211.393 135.489C211.032 134.492 210.478 133.575 209.762 132.791C209.047 132.008 208.184 131.373 207.223 130.923C206.262 130.473 205.222 130.216 204.161 130.168C203.101 130.12 202.042 130.282 201.044 130.643L190.496 134.582Z" fill="#E6E6E6"/>
<path d="M292.828 200.218L177.433 192.785C175.614 192.668 173.836 192.193 172.2 191.389C170.564 190.585 169.103 189.466 167.9 188.097C166.697 186.728 165.775 185.136 165.187 183.41C164.599 181.685 164.357 179.861 164.474 178.042C164.591 176.223 165.065 174.445 165.87 172.809C166.674 171.174 167.793 169.713 169.162 168.509C170.531 167.306 172.123 166.384 173.849 165.796C175.574 165.208 177.398 164.966 179.217 165.083L294.612 172.516C295.464 172.571 296.297 172.793 297.063 173.169C297.829 173.546 298.513 174.07 299.077 174.711C299.64 175.352 300.072 176.098 300.347 176.906C300.622 177.714 300.736 178.568 300.681 179.42L299.732 194.149C299.622 195.87 298.832 197.475 297.537 198.613C296.242 199.752 294.548 200.329 292.828 200.218Z" fill="#FF0000"/>
<path d="M261.991 204.984C261.839 204.984 261.686 204.979 261.533 204.969L166.777 198.866C165.859 198.807 164.963 198.568 164.138 198.162C163.313 197.756 162.576 197.192 161.969 196.502C161.362 195.811 160.897 195.008 160.601 194.138C160.304 193.268 160.182 192.348 160.241 191.431L161.861 166.272C161.921 165.355 162.16 164.458 162.565 163.633C162.971 162.808 163.535 162.071 164.226 161.465C164.916 160.858 165.72 160.393 166.59 160.096C167.46 159.8 168.38 159.678 169.297 159.737L264.053 165.84C265.905 165.962 267.633 166.812 268.858 168.206C270.084 169.6 270.706 171.423 270.589 173.275L268.969 198.434C268.879 199.782 268.403 201.076 267.597 202.16C266.79 203.244 265.688 204.072 264.422 204.545C263.645 204.836 262.821 204.984 261.991 204.984Z" fill="#919191"/>
<path d="M152.605 46.9405C159.314 41.1702 168.527 46.3321 176.222 45.4285C183.583 44.5639 189.395 37.9609 190.88 30.9461C192.612 22.7621 188.365 14.5629 182.104 9.46034C175.246 3.87176 166.151 2.26741 157.533 3.30134C147.655 4.48634 138.622 9.09069 130.516 14.6599C122.692 19.869 115.497 25.9659 109.074 32.8291C103.323 39.1807 98.4507 46.7517 96.8947 55.2988C95.4807 63.0663 96.5604 71.6738 101.152 78.254C103.587 81.6266 106.85 84.3148 110.626 86.0592C114.564 87.9927 118.764 89.3749 122.579 91.5609C128.346 94.8662 133.952 101.72 132.145 108.852C131.758 110.41 130.994 111.849 129.919 113.042C128.629 114.475 126.301 112.581 127.595 111.145C129.868 108.622 129.778 105.257 128.567 102.245C127.126 98.8502 124.576 96.0456 121.333 94.2903C117.34 92.0073 112.932 90.5982 108.839 88.5187C104.922 86.6191 101.522 83.8013 98.9278 80.3049C94.0296 73.4979 92.5645 64.639 93.6753 56.4439C94.8775 47.5755 99.434 39.5167 105.146 32.7634C111.362 25.414 118.998 19.1929 126.798 13.6041C135.169 7.60721 144.416 2.53729 154.649 0.70358C163.519 -0.88596 173.133 0.0926609 180.89 4.92651C188.13 9.4386 193.682 17.2003 194.234 25.8732C194.433 29.8194 193.576 33.7471 191.752 37.2521C189.928 40.7572 187.203 43.7129 183.858 45.8153C180.425 47.8695 176.434 48.794 172.448 48.4586C168.186 48.1858 163.921 46.8808 159.632 47.2431C157.691 47.3609 155.842 48.1082 154.364 49.3716C152.898 50.6324 151.151 48.1909 152.605 46.9405Z" fill="#919191"/>
<path d="M739.485 597.174H1.19115C0.875955 597.173 0.573992 597.048 0.35144 596.824C0.128889 596.601 0.00390625 596.299 0.00390625 595.984C0.00390625 595.668 0.128889 595.366 0.35144 595.143C0.573992 594.92 0.875955 594.794 1.19115 594.793H739.485C739.801 594.793 740.104 594.918 740.327 595.142C740.55 595.365 740.676 595.668 740.676 595.984C740.676 596.299 740.55 596.602 740.327 596.826C740.104 597.049 739.801 597.174 739.485 597.174Z" fill="#919191"/>
<defs>
<rect width="740.675" height="597.175" fill="white"/>
</defs>
</svg>
