<svg width="645" height="570" viewBox="0 0 645 570" fill="none" xmlns="http://www.w3.org/2000/svg">
<path d="M559.996 340.901H17.6562C13.2817 340.896 9.08773 339.156 5.99445 336.063C2.90117 332.97 1.16119 328.776 1.15625 324.401V18.6016H576.496V324.401C576.492 328.776 574.751 332.97 571.658 336.063C568.565 339.156 564.371 340.896 559.996 340.901Z" fill="#E6E6E6"/>
<path d="M538.413 309.317H39.2383C36.9847 309.315 34.8242 308.419 33.2307 306.825C31.6372 305.232 30.7408 303.071 30.7383 300.817V58.6836C30.7408 56.43 31.6372 54.2695 33.2307 52.676C34.8242 51.0825 36.9847 50.1861 39.2383 50.1836H538.413C540.666 50.1861 542.827 51.0825 544.42 52.676C546.014 54.2695 546.91 56.43 546.913 58.6836V300.817C546.91 303.071 546.014 305.232 544.42 306.825C542.827 308.419 540.666 309.315 538.413 309.317Z" fill="white"/>
<path d="M577.649 29.7476H0V16.5C0.00494149 12.1254 1.74492 7.93148 4.8382 4.8382C7.93148 1.74492 12.1254 0.00494149 16.5 0H561.149C565.524 0.00494149 569.718 1.74492 572.811 4.8382C575.904 7.93148 577.644 12.1254 577.649 16.5V29.7476Z" fill="#FF0000"/>
<path d="M157.31 216.61H68.4648C66.2113 216.607 64.0508 215.711 62.4572 214.117C60.8637 212.524 59.9674 210.363 59.9648 208.11V149.703C59.9674 147.45 60.8637 145.289 62.4572 143.696C64.0508 142.102 66.2113 141.206 68.4648 141.203H157.31C159.564 141.206 161.724 142.102 163.318 143.695C164.911 145.289 165.808 147.45 165.81 149.703V208.11C165.808 210.363 164.911 212.524 163.318 214.117C161.724 215.711 159.564 216.607 157.31 216.61Z" fill="#E6E6E6"/>
<path d="M512.954 150.659H232.24C230.986 150.659 229.783 150.161 228.896 149.274C228.01 148.387 227.512 147.185 227.512 145.931C227.512 144.677 228.01 143.474 228.896 142.588C229.783 141.701 230.986 141.203 232.24 141.203H512.954C514.208 141.203 515.411 141.701 516.297 142.588C517.184 143.474 517.682 144.677 517.682 145.931C517.682 147.185 517.184 148.387 516.297 149.274C515.411 150.161 514.208 150.659 512.954 150.659Z" fill="#E6E6E6"/>
<path d="M512.954 184.479H232.239C230.985 184.479 229.783 183.98 228.896 183.094C228.01 182.207 227.512 181.005 227.512 179.751C227.512 178.497 228.01 177.295 228.896 176.408C229.783 175.522 230.985 175.023 232.239 175.023H512.954C514.208 175.023 515.41 175.522 516.297 176.408C517.184 177.295 517.682 178.497 517.682 179.751C517.682 181.005 517.184 182.207 516.297 183.094C515.41 183.98 514.208 184.479 512.954 184.479Z" fill="#E6E6E6"/>
<path d="M512.954 218.299H232.24C230.986 218.299 229.783 217.801 228.896 216.915C228.01 216.028 227.512 214.825 227.512 213.572C227.512 212.318 228.01 211.115 228.896 210.228C229.783 209.342 230.986 208.844 232.24 208.844H512.954C514.208 208.844 515.411 209.342 516.297 210.228C517.184 211.115 517.682 212.318 517.682 213.572C517.682 214.825 517.184 216.028 516.297 216.915C515.411 217.801 514.208 218.299 512.954 218.299Z" fill="#E6E6E6"/>
<path d="M419.549 556.311H407.289L401.457 509.023H419.551L419.549 556.311Z" fill="#A0616A"/>
<path d="M398.531 552.809H422.175V567.695H383.645C383.645 565.741 384.03 563.805 384.778 561.999C385.526 560.192 386.622 558.551 388.005 557.169C389.387 555.787 391.028 554.69 392.834 553.942C394.641 553.194 396.576 552.809 398.531 552.809Z" fill="#919191"/>
<path d="M470.549 556.311H458.289L452.457 509.023H470.551L470.549 556.311Z" fill="#A0616A"/>
<path d="M449.531 552.809H473.175V567.695H434.645C434.645 565.741 435.03 563.805 435.778 561.999C436.526 560.192 437.622 558.551 439.005 557.169C440.387 555.787 442.028 554.69 443.834 553.942C445.641 553.194 447.576 552.809 449.531 552.809Z" fill="#919191"/>
<path d="M468.988 545.444H456.509C455.381 545.438 454.297 545.012 453.468 544.248C452.638 543.485 452.123 542.439 452.024 541.316L441.448 413.918C441.417 413.548 441.25 413.202 440.979 412.948C440.708 412.694 440.352 412.55 439.98 412.543C439.609 412.536 439.248 412.668 438.968 412.912C438.688 413.157 438.508 413.496 438.464 413.865L423.275 541.477C423.144 542.57 422.617 543.577 421.794 544.309C420.97 545.04 419.908 545.444 418.806 545.444H403.482C402.294 545.442 401.155 544.971 400.312 544.133C399.47 543.294 398.993 542.157 398.985 540.969C398.951 532.953 398.896 524.879 398.842 516.804C398.355 444.882 397.852 370.512 412.87 341.376L413.007 341.11L467.2 340.184L467.336 340.481C483.732 376.312 478.755 456.356 473.943 533.765L473.479 541.224C473.407 542.366 472.902 543.438 472.068 544.222C471.234 545.005 470.133 545.443 468.988 545.444Z" fill="#919191"/>
<path d="M443.315 244.423C456.88 244.423 467.876 233.426 467.876 219.862C467.876 206.297 456.88 195.301 443.315 195.301C429.75 195.301 418.754 206.297 418.754 219.862C418.754 233.426 429.75 244.423 443.315 244.423Z" fill="#A0616A"/>
<path d="M409.83 345.623L410.507 317.462L405.634 295.491C404.404 290.05 404.476 284.396 405.844 278.988C407.213 273.581 409.839 268.573 413.51 264.373C417.081 260.193 421.589 256.917 426.667 254.812C431.745 252.707 437.249 251.831 442.729 252.257C443.083 252.285 443.438 252.314 443.793 252.346C448.476 252.768 453.026 254.128 457.172 256.345C461.318 258.563 464.975 261.592 467.925 265.253C470.936 268.935 473.176 273.185 474.51 277.751C475.844 282.316 476.245 287.104 475.689 291.828L469.795 343.344L409.83 345.623Z" fill="#FF0000"/>
<path d="M388.966 396.092C390.125 395.187 391.071 394.039 391.738 392.729C392.405 391.419 392.777 389.979 392.827 388.51C392.877 387.04 392.605 385.578 392.029 384.225C391.453 382.873 390.587 381.663 389.493 380.681L403.321 347.73L385.071 351.158L374.737 381.923C373.21 383.871 372.45 386.311 372.601 388.781C372.752 391.252 373.805 393.581 375.558 395.327C377.312 397.074 379.646 398.116 382.117 398.257C384.588 398.398 387.025 397.627 388.966 396.092Z" fill="#A0616A"/>
<path d="M493.307 400.041C492.202 399.072 491.323 397.872 490.731 396.526C490.14 395.18 489.85 393.721 489.884 392.252C489.917 390.782 490.272 389.337 490.924 388.02C491.576 386.702 492.509 385.544 493.658 384.626L481.727 350.941L499.753 355.402L508.319 386.705C509.733 388.736 510.353 391.216 510.062 393.674C509.77 396.131 508.587 398.397 506.737 400.041C504.886 401.685 502.497 402.593 500.022 402.593C497.547 402.593 495.158 401.685 493.307 400.041Z" fill="#A0616A"/>
<path d="M391.158 379.946C390.525 379.946 389.898 379.812 389.319 379.554L378.798 374.841C377.786 374.389 376.977 373.579 376.526 372.566C376.075 371.554 376.014 370.41 376.354 369.355L394.002 314.536L400.822 273.236C401.065 271.769 401.6 270.365 402.396 269.109C403.192 267.852 404.232 266.769 405.455 265.923C406.679 265.076 408.06 264.485 409.516 264.183C410.972 263.882 412.475 263.876 413.933 264.167C415.392 264.458 416.777 265.039 418.007 265.876C419.236 266.714 420.284 267.789 421.09 269.04C421.895 270.29 422.44 271.69 422.693 273.156C422.947 274.621 422.902 276.123 422.563 277.571L412.198 321.863L395.463 376.759C395.182 377.681 394.612 378.489 393.837 379.063C393.062 379.637 392.123 379.947 391.158 379.946Z" fill="#FF0000"/>
<path d="M491.521 379.946C490.557 379.947 489.617 379.637 488.842 379.063C488.067 378.49 487.497 377.682 487.216 376.759L470.49 321.895L460.116 277.571C459.777 276.123 459.733 274.622 459.986 273.156C460.239 271.69 460.785 270.291 461.59 269.04C462.395 267.789 463.443 266.714 464.673 265.876C465.902 265.039 467.288 264.458 468.746 264.167C470.205 263.876 471.707 263.882 473.164 264.183C474.62 264.485 476.001 265.076 477.224 265.923C478.447 266.769 479.488 267.852 480.284 269.109C481.08 270.365 481.615 271.769 481.857 273.236L488.695 314.609L506.325 369.356C506.666 370.41 506.605 371.554 506.154 372.566C505.703 373.579 504.893 374.389 503.881 374.841L493.36 379.554C492.782 379.813 492.155 379.947 491.521 379.946Z" fill="#FF0000"/>
<path d="M443.818 192.715C436.992 189.758 428.075 193.438 425.321 200.348C423.606 204.648 424.129 209.499 425.075 214.031C426.02 218.563 427.367 223.086 427.223 227.713C427.078 232.34 425.085 237.252 420.98 239.392C418.527 240.672 415.658 240.814 412.999 241.577C410.34 242.34 407.595 244.123 407.212 246.863C406.633 251.007 411.66 254.164 411.627 258.349C411.591 262.783 406.05 265.416 405.332 269.791C405.208 271.072 405.412 272.364 405.925 273.545C406.437 274.725 407.241 275.756 408.261 276.541C410.319 278.087 412.657 279.218 415.145 279.874C434.293 285.994 454.681 287.156 474.401 283.25C478.319 282.469 482.352 281.412 485.396 278.824C488.441 276.237 490.182 271.708 488.432 268.116C485.808 262.731 477.479 262.424 474.576 257.185C472.834 254.042 473.636 250.184 474.003 246.61C474.949 237.379 477.134 226.596 474.841 217.605C472.769 209.481 468.271 198.984 461.841 193.605C457.227 189.744 448.419 191.503 442.523 192.694L443.818 192.715Z" fill="#919191"/>
<path d="M643.461 569.059H293.461C293.196 569.059 292.941 568.953 292.754 568.766C292.566 568.578 292.461 568.324 292.461 568.059C292.461 567.793 292.566 567.539 292.754 567.352C292.941 567.164 293.196 567.059 293.461 567.059H643.461C643.726 567.059 643.98 567.164 644.168 567.352C644.356 567.539 644.461 567.793 644.461 568.059C644.461 568.324 644.356 568.578 644.168 568.766C643.98 568.953 643.726 569.059 643.461 569.059Z" fill="#CCCCCC"/>
<path d="M606.607 546.287C592.188 565.598 562.255 567.631 562.255 567.631C562.255 567.631 555.702 538.354 570.122 519.043C584.541 499.732 614.474 497.699 614.474 497.699C614.474 497.699 621.027 526.976 606.607 546.287Z" fill="#E6E6E6"/>
<path d="M533.152 553.546C542.667 566.289 562.418 567.63 562.418 567.63C562.418 567.63 566.743 548.311 557.228 535.568C547.712 522.826 527.961 521.484 527.961 521.484C527.961 521.484 523.636 540.803 533.152 553.546Z" fill="#E6E6E6"/>
<defs>
<rect width="644.463" height="569.058" fill="white"/>
</defs>
</svg>
