<svg width="1178" height="726" viewBox="0 0 1178 726" fill="none" xmlns="http://www.w3.org/2000/svg">
<path opacity="0.1" d="M1177.82 465.31C1177.84 484.939 1175.47 504.496 1170.75 523.55C1169.16 529.963 1167.32 536.25 1165.22 542.41C1162.65 550.004 1159.67 557.454 1156.3 564.73C1154.6 568.403 1152.8 572.01 1150.91 575.55C1150.94 595.678 1146.8 615.594 1138.74 634.04C1124.17 667.131 1098.2 693.888 1065.56 709.44C1045.12 719.187 1022.79 724.309 1000.15 724.44H223.59C189.037 724.517 155.08 715.443 125.17 698.14C120.75 695.58 116.444 692.853 112.25 689.96C103.146 683.67 94.5915 676.618 86.6805 668.88C75.9704 658.404 66.535 646.699 58.5705 634.01C39.8584 604.298 29.9457 569.893 29.9805 534.78C11.0305 501.53 -0.0195312 461.7 -0.0195312 418.9C-0.0195312 364.9 17.5405 315.64 46.3905 278.35C52.4051 270.559 58.9935 263.229 66.1005 256.42C73.1128 249.682 80.6499 243.513 88.6405 237.97C95.0311 233.527 101.713 229.518 108.64 225.97C111.53 224.49 114.43 223.11 117.38 221.82C119.97 220.67 122.59 219.6 125.24 218.59C128.42 217.377 131.64 216.267 134.9 215.26C138.16 214.253 141.377 213.367 144.55 212.6C149.217 211.46 153.964 210.533 158.79 209.82C162.79 209.23 166.79 208.82 170.79 208.5C173.97 208.273 177.177 208.14 180.41 208.1H182.16C185.72 208.1 189.26 208.24 192.77 208.48C193.14 207.74 193.54 206.99 193.91 206.25C195.31 203.59 196.76 200.93 198.22 198.32V198.25C198.47 197.8 198.72 197.35 198.98 196.91C200.16 194.78 201.39 192.67 202.65 190.58C203.23 189.58 203.8 188.64 204.39 187.69C204.52 187.46 204.65 187.24 204.8 187.01C205.4 186.01 206.01 185.01 206.63 184.01C209.717 179.083 212.927 174.233 216.26 169.46C216.55 169.05 216.82 168.65 217.11 168.25C217.63 167.51 218.11 166.78 218.69 166.05C220.07 164.12 221.49 162.18 222.92 160.27C223.92 158.92 224.92 157.57 226 156.27C228.6 152.91 231.27 149.57 234 146.27C236.73 142.97 239.61 139.65 242.52 136.4C242.92 135.95 243.32 135.51 243.74 135.06L248.01 130.41C248.22 130.19 248.4 129.99 248.6 129.79C249.11 129.24 249.6 128.69 250.15 128.15C252.44 125.73 254.79 123.34 257.15 120.98C269.205 109.002 282.047 97.844 295.59 87.5799C296.12 87.1599 296.66 86.7599 297.19 86.3599C299.73 84.4399 302.31 82.5499 304.89 80.6899C319.084 70.5129 333.918 61.2605 349.3 52.9899C350.36 52.3899 351.44 51.8199 352.53 51.2499C366.325 43.9572 380.51 37.4273 395.02 31.6899C402.927 28.5633 410.974 25.6433 419.16 22.9299C424.58 21.1599 430.02 19.4699 435.53 17.9299C444.05 15.4833 452.677 13.2766 461.41 11.3099C487.14 5.53679 513.315 1.97051 539.65 0.649936C547.65 0.229936 555.74 0.0199388 563.92 0.0199388C603.391 -0.0323152 642.707 4.941 680.92 14.8199C681.316 15.417 681.856 15.9038 682.491 16.2344C683.126 16.5651 683.835 16.7287 684.55 16.7099H687.91C689.37 17.0999 690.82 17.5099 692.28 17.9299C700.434 20.2833 708.47 22.8466 716.39 25.6199L718.39 26.3399C737.938 33.2908 756.958 41.6459 775.3 51.3399C791.833 60.0612 807.753 69.8972 822.95 80.7799C825.29 82.4599 827.597 84.1566 829.87 85.8699C832.63 84.0899 835.437 82.3933 838.29 80.7799C849.31 74.5075 861.013 69.5215 873.17 65.9199C898.588 58.3981 925.483 57.3463 951.41 62.8599C984.66 69.9099 1014.76 87.4099 1039.07 112.3C1048.97 122.451 1057.79 133.604 1065.39 145.58C1065.94 146.44 1066.49 147.31 1067.02 148.19C1073.54 158.825 1079.14 169.996 1083.76 181.58C1083.93 182 1084.1 182.41 1084.25 182.83C1088.52 193.671 1091.96 204.82 1094.55 216.18C1094.67 216.75 1094.81 217.33 1094.93 217.91C1097.35 228.904 1098.99 240.055 1099.85 251.28C1099.85 251.68 1099.85 252.09 1099.93 252.5C1100.35 258.307 1100.56 264.177 1100.57 270.11C1100.57 275.41 1100.39 280.67 1100.06 285.88C1100.06 286.45 1099.98 287.05 1099.93 287.63C1099.84 289.15 1099.71 290.63 1099.58 292.16C1107.22 298.317 1114.37 305.057 1120.96 312.32C1123.87 315.5 1126.69 318.803 1129.42 322.23C1137.73 332.637 1145.03 343.811 1151.22 355.6C1168.1 387.58 1177.82 425.12 1177.82 465.31Z" fill="#FF0000"/>
<path opacity="0.1" d="M1064.82 662.139C1064.82 684.869 1041.26 706.139 1000.15 724.459H223.592C187.662 724.459 154.012 711.459 125.172 688.789C117.922 680.189 114.102 671.279 114.102 662.129C114.102 637.969 140.742 615.419 186.802 596.359L188.102 595.839C201.102 590.509 215.632 585.479 231.512 580.749C231.912 580.629 232.322 580.519 232.722 580.379C245.322 576.679 258.725 573.172 272.932 569.859C273.382 569.759 273.822 569.649 274.272 569.569C279.752 568.269 285.342 567.059 291.052 565.849L293.252 565.389C334.802 556.769 382.032 549.929 433.252 545.289H433.312C440.485 544.622 447.735 544.025 455.062 543.499C463.212 542.849 471.462 542.299 479.802 541.789C486.172 541.379 492.622 541.029 499.092 540.709C499.115 540.699 499.141 540.693 499.167 540.693C499.192 540.693 499.218 540.699 499.242 540.709C528.432 539.239 558.592 538.469 589.432 538.469C665.692 538.469 737.772 543.149 801.642 551.469C801.701 551.458 801.762 551.458 801.822 551.469C811.642 552.749 821.282 554.099 830.682 555.539C833.372 555.959 836.052 556.379 838.682 556.809C849.288 558.522 859.622 560.332 869.682 562.239C987.982 584.729 1064.82 621.119 1064.82 662.139Z" fill="#FF0000"/>
<path d="M871.499 243.278C871.499 243.278 860.919 238.988 827.259 254.418C793.599 269.848 789.399 267.898 780.689 265.578C771.979 263.258 767.119 262.658 757.779 249.768C757.779 249.768 751.189 214.058 744.779 208.518C738.369 202.978 711.309 211.678 711.309 211.678C711.309 211.678 678.819 219.128 672.629 175.678C672.629 175.678 677.019 142.958 671.039 132.918C671.039 132.918 683.119 138.118 703.039 129.718C722.959 121.318 738.909 138.768 738.909 138.768C738.909 138.768 743.909 151.768 743.409 159.528C742.909 167.288 746.069 170.198 755.569 166.448C755.569 166.448 760.239 159.808 753.629 148.828C747.019 137.848 742.299 129.678 744.139 121.158C745.979 112.638 751.289 100.808 768.339 94.8981C785.389 88.9881 808.539 87.8981 819.649 83.2281C830.759 78.5581 833.499 75.5781 833.499 75.5781C833.499 75.5781 826.659 82.4281 842.769 111.478C858.879 140.528 848.609 153.128 848.609 153.128C848.609 153.128 840.039 173.558 802.199 171.898C802.199 171.898 765.739 173.228 785.619 188.688C785.619 188.688 798.349 186.098 817.379 180.048C836.409 173.998 850.149 198.968 853.559 216.338C856.969 233.708 871.499 243.278 871.499 243.278Z" fill="#FF0000"/>
<path d="M822.49 97.5795L822.69 97.5195C824.15 103.06 807.86 125.34 793.93 143.05L793.77 142.92C813.41 117.98 823.62 101.87 822.49 97.5795Z" fill="#919191"/>
<path d="M794.052 142.578L794.142 142.798C783.012 156.938 769.022 173.798 757.822 186.328C756.752 187.518 755.692 188.768 754.672 190.048L754.352 189.788C755.352 188.508 756.442 187.248 757.512 186.058C768.702 173.578 782.912 156.728 794.052 142.578Z" fill="#919191"/>
<path d="M754.622 189.469L754.842 189.849C734.462 215.299 733.112 254.849 733.062 255.159L728.762 250.159C728.812 249.839 734.102 215.099 754.622 189.469Z" fill="#919191"/>
<path d="M847.908 229.479C847.908 229.479 823.908 216.979 805.148 221.479C786.388 225.979 744.198 205.579 744.198 205.579C744.198 205.579 726.298 198.309 722.698 190.019C722.698 190.019 710.408 177.019 709.698 170.309C708.988 163.599 697.038 146.689 689.238 146.039" stroke="#919191" stroke-miterlimit="10"/>
<path d="M844.378 241.512C844.378 241.512 832.279 233.352 833.689 223.852" stroke="#919191" stroke-miterlimit="10"/>
<path d="M825.82 252.041C825.82 252.041 808.51 245.761 806.82 221.121" stroke="#919191" stroke-miterlimit="10"/>
<path d="M797.909 258.419C797.909 258.419 781.369 244.699 786.859 220.719" stroke="#919191" stroke-miterlimit="10"/>
<path d="M764.319 251.72C764.319 251.72 753.319 228.62 763.109 213.59" stroke="#919191" stroke-miterlimit="10"/>
<path d="M848.14 214.25C848.14 214.25 835.63 218.25 838.31 224.81" stroke="#919191" stroke-miterlimit="10"/>
<path d="M833.038 191.578C833.038 191.578 816.288 196.888 815.898 220.578" stroke="#919191" stroke-miterlimit="10"/>
<path d="M809.681 186.059C809.681 186.059 794.431 204.879 795.551 221.979" stroke="#919191" stroke-miterlimit="10"/>
<path d="M782.982 193.441C782.982 193.441 767.842 207.921 769.772 215.971" stroke="#919191" stroke-miterlimit="10"/>
<path d="M773.85 188.331C773.85 188.331 759.65 190.871 757.66 186.211" stroke="#919191" stroke-miterlimit="10"/>
<path d="M755.398 171.191C755.398 171.191 762.568 180.691 764.398 178.561" stroke="#919191" stroke-miterlimit="10"/>
<path d="M826.521 165.18C826.521 165.18 790.721 167.78 782.621 156.98" stroke="#919191" stroke-miterlimit="10"/>
<path d="M747.91 123.309C747.91 123.309 764.7 159.359 776.91 163.949" stroke="#919191" stroke-miterlimit="10"/>
<path d="M765.488 106.141C765.488 106.141 775.798 139.301 788.578 149.651" stroke="#919191" stroke-miterlimit="10"/>
<path d="M841.58 137.812C841.58 137.812 814.36 149.492 798.02 137.672" stroke="#919191" stroke-width="0.75" stroke-miterlimit="10"/>
<path d="M789.73 99.0703C789.73 99.0703 795.95 123.44 804.33 129.33" stroke="#919191" stroke-width="0.75" stroke-miterlimit="10"/>
<path d="M837.469 110.5C837.469 110.5 822.169 116.3 816.469 111.86" stroke="#919191" stroke-width="0.75" stroke-miterlimit="10"/>
<path d="M742.292 179.148C742.292 179.148 742.292 200.398 736.512 201.908" stroke="#919191" stroke-miterlimit="10"/>
<path d="M695 206.679C695 206.679 718 208.679 728.57 196.789" stroke="#919191" stroke-miterlimit="10"/>
<path d="M736.369 154.051C736.369 154.051 730.809 175.601 715.469 181.411" stroke="#919191" stroke-miterlimit="10"/>
<path d="M681.219 183.978C681.219 183.978 697.479 189.628 711.469 175.238" stroke="#919191" stroke-miterlimit="10"/>
<path d="M718.281 135.52C718.281 135.52 716.751 153.82 706.801 162.39" stroke="#919191" stroke-miterlimit="10"/>
<path d="M681.84 156.091C681.84 156.091 695.33 156.181 698.49 151.781" stroke="#919191" stroke-miterlimit="10"/>
<path d="M779.411 225.578H395.211V419.518H779.411V225.578Z" fill="#919191"/>
<path d="M900.311 478.441H275.531V606.101H900.311V478.441Z" fill="#919191"/>
<path d="M424.67 510.352H745.04L808.87 725.162H357.16L424.67 510.352Z" fill="white"/>
<path d="M257.73 402.328V468.618V482.578V606.088H377.41V488.258H798.43V606.088H918.11V482.578V468.618V402.328H257.73Z" fill="#404040"/>
<path opacity="0.1" d="M918.11 402.328H257.73V468.608H918.11V402.328Z" fill="#919191"/>
<path opacity="0.8" d="M882.519 445.3C887.943 445.3 892.339 440.904 892.339 435.48C892.339 430.057 887.943 425.66 882.519 425.66C877.096 425.66 872.699 430.057 872.699 435.48C872.699 440.904 877.096 445.3 882.519 445.3Z" fill="#8CCF4D"/>
<path opacity="0.8" d="M838.332 445.3C843.755 445.3 848.152 440.904 848.152 435.48C848.152 430.057 843.755 425.66 838.332 425.66C832.908 425.66 828.512 430.057 828.512 435.48C828.512 440.904 832.908 445.3 838.332 445.3Z" fill="#FA5959"/>
<path d="M765.298 178.93H409.328V390.05H765.298V178.93Z" fill="white"/>
<path d="M819.451 487.07C820.201 495.24 814.031 503.17 815.831 511.17C816.211 512.88 816.951 514.5 817.221 516.17C817.961 520.92 815.131 525.42 812.421 529.4L789.191 563.58C788.26 565.08 787.144 566.457 785.871 567.68C781.421 571.68 774.761 571.22 768.931 572.4C764.833 573.231 760.961 574.937 757.581 577.4C757.434 577.517 757.337 577.685 757.309 577.871C757.281 578.056 757.325 578.246 757.431 578.4C758.392 579.719 759.668 580.775 761.142 581.474C762.617 582.173 764.242 582.491 765.871 582.4C766.481 583.2 765.871 584.4 765.031 584.96C763.781 585.82 762.031 586.05 761.821 588.17C761.733 588.907 761.88 589.652 762.241 590.3C763.181 591.732 764.641 592.743 766.311 593.12C774.311 595.58 783.041 591.26 789.061 585.38C795.081 579.5 799.401 572.08 805.311 566.09C808.581 562.78 812.311 559.94 815.671 556.73C822.391 550.33 827.671 542.54 832.671 534.73C834.323 532.465 835.568 529.931 836.351 527.24C836.971 524.58 836.691 521.77 837.411 519.13C838.351 515.68 840.881 512.93 842.981 510.03C847.111 504.35 849.861 497.41 849.311 490.41C848.761 483.41 844.441 476.52 837.841 474.14C835.795 473.325 833.541 473.189 831.411 473.75C828.701 474.58 826.711 476.82 824.861 478.96L820.451 484.05C819.352 485.177 818.48 486.504 817.881 487.96C817.597 488.694 817.532 489.495 817.693 490.265C817.855 491.035 818.236 491.742 818.791 492.3" fill="#FBBEBE"/>
<path opacity="0.05" d="M819.451 487.07C820.201 495.24 814.031 503.17 815.831 511.17C816.211 512.88 816.951 514.5 817.221 516.17C817.961 520.92 815.131 525.42 812.421 529.4L789.191 563.58C788.26 565.08 787.144 566.457 785.871 567.68C781.421 571.68 774.761 571.22 768.931 572.4C764.833 573.231 760.961 574.937 757.581 577.4C757.434 577.517 757.337 577.685 757.309 577.871C757.281 578.056 757.325 578.246 757.431 578.4C758.392 579.719 759.668 580.775 761.142 581.474C762.617 582.173 764.242 582.491 765.871 582.4C766.481 583.2 765.871 584.4 765.031 584.96C763.781 585.82 762.031 586.05 761.821 588.17C761.733 588.907 761.88 589.652 762.241 590.3C763.181 591.732 764.641 592.743 766.311 593.12C774.311 595.58 783.041 591.26 789.061 585.38C795.081 579.5 799.401 572.08 805.311 566.09C808.581 562.78 812.311 559.94 815.671 556.73C822.391 550.33 827.671 542.54 832.671 534.73C834.323 532.465 835.568 529.931 836.351 527.24C836.971 524.58 836.691 521.77 837.411 519.13C838.351 515.68 840.881 512.93 842.981 510.03C847.111 504.35 849.861 497.41 849.311 490.41C848.761 483.41 844.441 476.52 837.841 474.14C835.795 473.325 833.541 473.189 831.411 473.75C828.701 474.58 826.711 476.82 824.861 478.96L820.451 484.05C819.352 485.177 818.48 486.504 817.881 487.96C817.597 488.694 817.532 489.495 817.693 490.265C817.855 491.035 818.236 491.742 818.791 492.3" fill="black"/>
<path d="M837.041 697.358C831.961 700.448 825.641 700.648 819.741 699.918C818.741 699.808 817.671 699.738 817.061 700.468C816.181 701.538 817.221 703.098 818.291 703.958C821.777 706.568 825.868 708.25 830.181 708.848C834.03 709.385 837.914 709.643 841.801 709.618C852.401 709.798 863.061 709.978 873.561 708.448C874.167 708.403 874.757 708.229 875.291 707.938C875.969 707.465 876.438 706.749 876.601 705.938C877.331 703.218 875.941 700.278 873.851 698.388C871.761 696.498 869.071 695.438 866.441 694.388L857.221 690.798C855.051 689.948 851.581 687.718 849.221 687.888C844.911 688.238 840.701 695.218 837.041 697.358Z" fill="#919191"/>
<path opacity="0.05" d="M837.041 697.358C831.961 700.448 825.641 700.648 819.741 699.918C818.741 699.808 817.671 699.738 817.061 700.468C816.181 701.538 817.221 703.098 818.291 703.958C821.777 706.568 825.868 708.25 830.181 708.848C834.03 709.385 837.914 709.643 841.801 709.618C852.401 709.798 863.061 709.978 873.561 708.448C874.167 708.403 874.757 708.229 875.291 707.938C875.969 707.465 876.438 706.749 876.601 705.938C877.331 703.218 875.941 700.278 873.851 698.388C871.761 696.498 869.071 695.438 866.441 694.388L857.221 690.798C855.051 689.948 851.581 687.718 849.221 687.888C844.911 688.238 840.701 695.218 837.041 697.358Z" fill="black"/>
<path d="M843.471 574.909C839.641 580.019 835.661 585.909 836.611 592.239C837.121 595.649 839.031 598.659 840.431 601.809C842.183 606.143 843.48 610.647 844.301 615.249C845.741 621.939 847.181 628.649 848.061 635.439C849.061 643.109 844.361 665.299 843.921 673.029C843.811 674.889 843.601 676.909 842.301 678.249C841.791 678.779 841.111 679.249 840.891 679.899C840.751 680.561 840.858 681.251 841.191 681.839C843.361 686.729 847.791 690.359 852.711 692.439C857.631 694.519 869.601 698.089 874.941 698.279C875.65 698.365 876.369 698.269 877.031 697.999C877.752 697.568 878.319 696.921 878.651 696.149C882.511 688.779 878.801 662.539 878.861 654.209C878.861 647.209 880.551 640.369 880.251 633.429C880.001 627.859 878.511 622.429 877.971 616.869C877.081 607.759 878.751 598.619 880.431 589.619C881.711 582.729 882.991 575.829 884.631 569.009C885.631 564.859 886.791 560.659 889.081 557.009C890.891 554.139 893.351 551.749 895.421 549.009C901.158 541.489 903.705 532.013 902.511 522.629C902.391 521.709 889.191 525.979 888.041 526.479C883.304 528.494 878.945 531.301 875.151 534.779C872.151 537.679 869.701 541.569 867.021 544.829C863.241 549.429 859.511 554.066 855.831 558.739C851.651 564.106 847.531 569.496 843.471 574.909Z" fill="#919191"/>
<path opacity="0.05" d="M843.471 574.579C839.641 579.689 835.661 585.579 836.611 591.919C837.121 595.319 839.031 598.329 840.431 601.479C842.182 605.814 843.479 610.318 844.301 614.919C845.741 621.609 847.181 628.319 848.061 635.109C849.061 642.779 844.361 664.979 843.921 672.709C843.811 674.559 843.601 676.589 842.301 677.919C841.791 678.449 841.111 678.919 840.891 679.569C840.739 680.25 840.846 680.963 841.191 681.569C843.361 686.449 847.791 690.089 852.711 692.159C857.631 694.229 869.601 696.159 874.941 696.329C875.65 696.415 876.369 696.318 877.031 696.049C877.752 695.618 878.319 694.971 878.651 694.199C882.511 686.829 878.801 662.259 878.861 653.939C878.861 646.939 880.551 640.089 880.251 633.149C880.001 627.579 878.511 622.149 877.971 616.589C877.081 607.479 878.751 598.339 880.431 589.349C881.711 582.449 882.991 575.549 884.631 568.729C885.631 564.579 886.791 560.379 889.081 556.729C890.891 553.869 893.351 551.469 895.421 548.789C901.151 541.266 903.697 531.792 902.511 522.409C902.391 521.479 889.191 525.749 888.041 526.259C883.3 528.275 878.94 531.09 875.151 534.579C872.151 537.489 869.701 541.369 867.021 544.579C863.241 549.179 859.511 553.819 855.831 558.499C851.651 563.833 847.531 569.193 843.471 574.579Z" fill="black"/>
<path d="M800.78 462.4C812.671 462.4 822.31 452.761 822.31 440.87C822.31 428.979 812.671 419.34 800.78 419.34C788.889 419.34 779.25 428.979 779.25 440.87C779.25 452.761 788.889 462.4 800.78 462.4Z" fill="#FBBEBE"/>
<path d="M820.159 439.971C822.147 443.146 824.754 445.889 827.824 448.037C830.894 450.184 834.364 451.692 838.029 452.471L836.409 458.341C833.609 468.471 830.409 479.181 822.639 486.201C823.489 482.771 822.389 479.081 820.449 476.131C818.374 473.261 815.914 470.691 813.139 468.491L800.749 457.711C800.379 457.438 800.064 457.099 799.819 456.711C799.519 455.953 799.519 455.109 799.819 454.351C801.399 449.441 805.909 446.351 809.559 443.051C811.394 441.332 813.037 439.417 814.459 437.341C816.999 433.811 818.529 437.341 820.159 439.971Z" fill="#FBBEBE"/>
<path d="M772.41 419.228L771.93 415.228C775.33 416.108 778.55 413.228 780.72 410.228C782.89 407.228 784.91 403.708 788.22 402.468C792.22 400.948 796.5 403.378 800.34 405.378C804.646 407.774 809.371 409.319 814.26 409.928C815.04 409.955 815.814 410.083 816.56 410.308C819.06 411.198 820.25 414.308 820.61 417.178C820.97 420.048 820.87 423.048 822.11 425.588C823.04 427.508 824.65 428.938 825.63 430.828C828.26 435.928 825.72 442.888 828.5 447.888L821.6 441.558C820.96 440.978 820.07 440.378 819.38 440.868C818.69 441.358 818.79 442.098 818.56 442.768C817.89 444.768 815.44 445.328 813.65 444.558C811.86 443.788 810.57 442.088 809.26 440.558C806.21 436.958 802.58 433.798 798.26 432.258C796.391 431.542 794.39 431.232 792.391 431.351C790.392 431.47 788.442 432.015 786.67 432.948C783.45 434.768 781.09 439.009 777.15 439.159C771.74 439.359 769.49 429.288 766.98 425.308C767.894 424.617 768.537 423.627 768.796 422.51C769.056 421.394 768.916 420.222 768.4 419.198C768.84 419.028 772.34 418.578 772.41 419.228Z" fill="#919191"/>
<path d="M862.149 697.191C857.894 700.985 852.37 703.044 846.669 702.961C845.219 702.961 843.209 703.241 843.199 704.691C843.225 705.122 843.37 705.538 843.619 705.891C845.425 708.891 848.273 711.119 851.619 712.151C854.719 713.091 858.039 712.931 861.279 712.771L870.729 712.281C872.509 712.181 874.299 712.091 876.079 711.871C877.859 711.651 879.779 711.281 881.639 711.011C886.195 710.359 890.802 710.142 895.399 710.361C896.619 710.411 898.029 710.361 898.789 709.441C899.549 708.521 899.139 706.861 898.859 705.531C898.299 702.791 898.859 699.921 898.339 697.171C897.429 692.341 893.279 688.651 888.699 686.901C884.449 685.281 876.909 683.431 872.879 686.121C868.559 689.021 865.959 693.741 862.149 697.191Z" fill="#919191"/>
<path d="M871.51 535.579C872.35 539.579 876.18 542.579 876.3 546.579C876.39 549.819 874.07 552.579 872.41 555.329C870.824 558.21 869.486 561.221 868.41 564.329C865.254 572.396 861.343 580.147 856.73 587.479C854.51 590.989 852.03 594.809 852.54 598.939C852.889 600.866 853.566 602.72 854.54 604.419L861.19 617.629C862.651 620.267 863.792 623.07 864.59 625.979C865.16 628.489 865.22 631.089 865.59 633.649C866.64 641.749 870.44 649.909 868.2 657.759C868 658.439 867.3 659.259 866.77 658.759C868.96 662.859 870.77 666.999 870.56 671.649C870.47 674.089 869.72 676.649 870.63 678.909C871.145 679.789 871.485 680.76 871.63 681.769C871.63 682.429 871.32 683.059 871.25 683.769C871.07 685.639 872.78 687.199 874.57 687.769C876.36 688.339 878.29 688.319 880.09 688.859C883.56 689.859 886.02 692.859 888.99 694.939C891.998 697.024 895.551 698.182 899.21 698.269C899.729 698.324 900.252 698.219 900.71 697.969C900.972 697.741 901.183 697.46 901.328 697.144C901.473 696.829 901.548 696.486 901.55 696.139C901.71 694.483 901.459 692.813 900.821 691.276C900.183 689.74 899.176 688.384 897.89 687.329C897.331 686.972 896.868 686.485 896.54 685.909C896.371 685.397 896.327 684.852 896.41 684.319C896.95 677.049 896.82 669.745 896.02 662.499C895.659 660.204 895.542 657.878 895.67 655.559C895.87 653.629 896.45 651.709 896.23 649.779C896.01 647.849 895.04 646.109 894.46 644.249C893.46 640.949 893.72 637.409 893.61 633.949C893.43 627.949 892.06 622.069 890.69 616.229C890.16 613.939 889.56 611.529 887.93 609.829C886.55 608.389 884.32 606.999 884.84 605.079C885.124 604.368 885.553 603.724 886.1 603.189C886.745 602.383 887.219 601.453 887.492 600.458C887.765 599.462 887.833 598.421 887.69 597.399C888.275 597.554 888.896 597.499 889.444 597.243C889.993 596.987 890.434 596.547 890.69 595.999C901.5 590.909 910.24 580.709 914.09 569.389C914.306 568.554 914.643 567.756 915.09 567.019C916.09 565.619 917.83 565.019 919.37 564.239C924.21 561.809 927.56 557.239 930.63 552.769C932.42 550.169 934.2 547.489 934.97 544.439C935.391 542.467 935.592 540.455 935.57 538.439L935.84 528.019C935.894 527.345 935.827 526.668 935.64 526.019C935.386 525.397 935.004 524.835 934.52 524.369C931.588 521.246 927.733 519.144 923.52 518.369C920.68 517.859 917.78 517.959 914.91 517.719C909.34 517.259 903.84 515.539 898.27 515.939C889.51 516.579 881.72 522.649 877.59 530.399C876.14 533.169 874.62 535.579 871.51 535.579Z" fill="#919191"/>
<path d="M822.911 467.82C823.037 469.427 822.823 471.043 822.281 472.56C821.601 474.02 819.881 475.15 818.391 474.56C818.841 473.56 817.641 472.37 816.531 472.5C815.982 472.623 815.471 472.877 815.042 473.241C814.613 473.605 814.28 474.068 814.071 474.59C813.325 476.076 813.076 477.762 813.361 479.4C813.711 481.4 814.891 483.4 814.581 485.4C814.331 487.1 813.081 488.8 813.751 490.4C814.182 491.119 814.721 491.767 815.351 492.32C816.23 493.398 816.661 494.773 816.555 496.159C816.448 497.546 815.813 498.839 814.781 499.77L831.561 500.1C830.951 502.91 832.201 505.78 833.641 508.27C837.67 515.114 843.229 520.933 849.883 525.27C856.536 529.607 864.103 532.345 871.991 533.27C871.565 533.522 871.2 533.864 870.923 534.274C870.645 534.683 870.461 535.148 870.385 535.637C870.308 536.125 870.341 536.625 870.48 537.099C870.62 537.573 870.862 538.011 871.191 538.38C872.551 539.73 874.861 539.56 876.571 538.68C878.281 537.8 879.631 536.35 881.191 535.23C883.942 533.27 887.306 532.361 890.671 532.671C892.771 532.871 894.811 533.551 896.921 533.671C903.141 534.001 908.481 529.531 914.431 527.671C918.791 526.331 923.721 526.331 927.431 523.611C929.011 522.441 930.301 520.521 929.841 518.611C929.45 517.514 928.834 516.513 928.031 515.671C925.921 512.951 924.681 509.67 923.181 506.58C920.189 500.456 916.074 494.947 911.051 490.34C907.266 487.024 903.257 483.973 899.051 481.21C898.027 480.447 896.936 479.777 895.791 479.21C894.263 478.713 892.773 478.108 891.331 477.4C889.331 476.16 888.221 473.97 886.711 472.2C883.381 468.32 878.271 466.531 874.171 463.481C871.421 461.481 869.001 458.74 865.711 457.75C864.121 457.27 862.421 457.23 860.821 456.75C857.201 455.65 854.561 452.43 851.001 451.13C848.181 450.13 845.081 450.37 842.101 450C838.823 449.594 835.691 448.404 832.971 446.53C832.068 445.803 831.055 445.222 829.971 444.81C825.481 443.44 825.111 451.81 824.691 454.72C824.021 459.17 822.911 463.45 822.911 467.82Z" fill="#FF0000"/>
<path d="M827.291 495.919C828.041 504.089 821.871 512.009 823.671 520.019C824.051 521.729 824.791 523.349 825.061 525.019C825.811 529.769 822.971 534.269 820.261 538.239L797.031 572.339C796.099 573.839 794.984 575.216 793.711 576.439C789.261 580.439 782.601 579.979 776.771 581.159C772.673 581.993 768.802 583.698 765.421 586.159C765.274 586.276 765.177 586.444 765.149 586.63C765.121 586.815 765.165 587.005 765.271 587.159C766.23 588.48 767.506 589.538 768.981 590.237C770.455 590.936 772.082 591.253 773.711 591.159C774.321 591.969 773.711 593.159 772.871 593.719C771.621 594.589 769.871 594.819 769.661 596.939C769.573 597.676 769.72 598.421 770.081 599.069C771.024 600.498 772.482 601.508 774.151 601.889C782.151 604.349 790.881 600.029 796.901 594.149C802.921 588.269 807.241 580.849 813.161 574.859C816.431 571.549 820.161 568.709 823.511 565.499C830.241 559.099 835.461 551.309 840.511 543.499C842.16 541.233 843.406 538.699 844.191 536.009C844.811 533.349 844.531 530.539 845.251 527.899C846.191 524.449 848.721 521.689 850.821 518.799C854.951 513.119 857.701 506.179 857.151 499.179C856.601 492.179 852.281 485.289 845.681 482.909C843.636 482.09 841.381 481.953 839.251 482.519C836.551 483.349 834.551 485.589 832.701 487.729L828.291 492.819C827.192 493.944 826.322 495.272 825.731 496.729C825.445 497.461 825.378 498.259 825.538 499.028C825.698 499.797 826.078 500.503 826.631 501.059" fill="#FBBEBE"/>
<path d="M839.05 462.351C835.99 462.531 832.63 462.831 830.47 465.011C829.57 466.012 828.841 467.154 828.31 468.391C826.22 472.661 824.18 477.121 824.03 481.871C823.9 485.671 825.03 489.381 825.58 493.141C826.06 496.261 824.84 499.441 824.58 502.601C828.37 501.441 833.37 499.861 836.81 497.901C839.064 496.426 841.459 495.18 843.96 494.181C847.61 492.971 853.74 495.051 857.18 496.761C857.37 494.321 855.55 490.091 855.74 487.651C855.77 486.63 855.952 485.619 856.28 484.651C856.798 483.626 857.411 482.652 858.11 481.741C859.436 479.595 860.047 477.083 859.855 474.567C859.663 472.051 858.677 469.661 857.04 467.741C853.97 464.281 849.15 462.981 844.56 462.451C841.666 462.113 838.75 462.01 835.84 462.141" fill="#FF0000"/>
<path d="M385.999 392.389L366.279 363.789C366.279 363.789 365.909 356.709 364.619 355.059C363.329 353.409 364.339 349.729 364.339 349.729C364.339 349.729 365.729 347.729 364.529 347.519C363.329 347.309 364.339 342.829 364.339 342.829L364.249 335.659C364.249 335.659 365.359 328.759 364.439 327.109C364.168 326.662 364.032 326.145 364.048 325.621C364.064 325.097 364.231 324.59 364.529 324.159C364.529 324.159 365.629 320.209 364.529 319.159C363.429 318.109 363.699 311.989 363.969 307.109C364.239 302.229 362.039 299.479 362.039 298.749C362.039 298.019 354.759 290.839 354.759 290.189C354.759 289.539 350.149 286.879 347.379 286.189C344.609 285.499 343.239 284.899 343.329 284.529C343.419 284.159 338.999 282.699 338.999 282.699C338.999 282.699 335.129 282.419 333.649 280.489C332.169 278.559 327.649 277.999 327.539 277.979L327.449 277.599C327.449 277.459 327.399 277.319 327.369 277.179C327.734 276.598 328.068 275.997 328.369 275.379L328.629 274.819C330.249 274.83 331.832 274.337 333.159 273.409C333.813 272.867 334.347 272.196 334.728 271.436C335.108 270.677 335.327 269.847 335.369 268.999C335.448 267.299 335.076 265.609 334.289 264.099C333.479 262.449 332.289 260.729 332.709 258.929C332.889 258.159 333.349 257.479 333.589 256.719C333.948 255.236 333.711 253.671 332.929 252.359C332.229 251.029 331.259 249.849 330.479 248.559C329.49 246.908 328.828 245.081 328.529 243.179C328.474 242.167 328.233 241.174 327.819 240.249C327.401 239.597 326.849 239.042 326.199 238.619C323.314 236.561 319.832 235.507 316.289 235.619C313.779 235.699 311.289 236.379 308.789 236.069C307.3 235.813 305.835 235.432 304.409 234.929C301.319 234.009 297.749 233.639 295.059 235.409C292.369 237.179 291.299 240.659 289.469 243.409C287.859 245.809 285.469 247.829 284.269 250.409C284.269 250.409 284.269 250.309 284.269 250.269C283.967 250.857 283.736 251.478 283.579 252.119C283.236 254.157 283.377 256.246 283.989 258.219C284.125 259.282 284.657 260.253 285.479 260.939C286.389 261.529 287.639 261.389 288.699 261.579L288.579 262.099C287.5 267.269 288.403 272.655 291.11 277.189C293.816 281.724 298.127 285.075 303.189 286.579C303.189 286.769 303.189 286.949 303.189 287.139C303.187 287.668 303.154 288.195 303.089 288.719C303.089 288.719 293.819 286.809 291.329 288.099C288.839 289.389 283.959 290.399 283.219 291.099C282.479 291.799 280.639 291.289 278.979 295.609C277.319 299.929 277.139 304.339 274.979 306.369C272.819 308.399 271.759 309.769 271.659 311.239C271.559 312.709 271.939 313.079 271.109 313.539C270.279 313.999 269.109 315.929 269.449 316.669C269.577 317.175 269.549 317.707 269.371 318.198C269.193 318.688 268.872 319.113 268.449 319.419C268.012 319.727 267.663 320.143 267.437 320.627C267.21 321.112 267.115 321.647 267.159 322.179C267.159 322.179 266.599 324.179 265.309 324.669C264.019 325.159 263.189 328.159 263.189 328.159L259.009 332.959L250.729 323.799C250.107 323.115 249.24 322.704 248.316 322.657C247.392 322.61 246.487 322.931 245.799 323.549L241.729 327.209C240.161 327.59 238.743 328.433 237.659 329.629C236.777 330.544 236.063 331.607 235.549 332.769L233.329 334.769C232.628 335.638 232.199 336.695 232.096 337.807C231.992 338.919 232.22 340.036 232.749 341.019L238.059 346.889V346.939C236.178 347.105 234.391 347.833 232.929 349.029C225.009 356.029 224.929 362.459 226.109 365.399C227.289 368.339 237.349 379.649 237.349 379.649C237.349 379.649 243.189 387.239 251.619 391.269L251.559 391.339C251.386 391.52 251.222 391.711 251.069 391.909L250.929 392.089L250.799 392.269L250.649 392.489C250.609 392.547 250.572 392.607 250.539 392.669L250.379 392.929C250.342 392.987 250.309 393.047 250.279 393.109C250.209 393.229 250.149 393.349 250.089 393.469C250.067 393.508 250.047 393.548 250.029 393.589C249.949 393.749 249.869 393.909 249.799 394.089L249.719 394.269C249.669 394.389 249.629 394.509 249.579 394.639C249.548 394.718 249.522 394.798 249.499 394.879L249.379 395.239C249.347 395.324 249.32 395.411 249.299 395.499C249.299 395.629 249.219 395.759 249.189 395.899C249.159 396.039 249.139 396.059 249.119 396.149C249.099 396.239 249.019 396.579 248.979 396.809C248.979 396.889 248.979 396.979 248.929 397.069C248.879 397.159 248.879 397.379 248.849 397.539C248.819 397.699 248.849 397.759 248.849 397.879L248.789 398.329V398.689C248.789 398.859 248.789 399.029 248.739 399.209C248.689 399.389 248.739 399.419 248.739 399.529C248.739 399.819 248.739 400.109 248.739 400.419C248.559 411.179 249.189 412.739 249.189 412.739C249.601 413.733 250.272 414.598 251.132 415.244C251.992 415.89 253.01 416.292 254.079 416.409C254.604 416.45 255.132 416.424 255.649 416.329C260.449 415.499 271.649 413.569 275.649 414.329C278.039 414.769 282.449 414.109 285.589 413.519L286.419 413.359L286.989 415.189L288.809 414.689L290.359 415.579L291.359 416.149C293.179 422.309 300.559 420.209 300.559 420.209L302.309 421.209L320.099 421.669C322.096 422.873 324.206 423.877 326.399 424.669C326.689 424.764 326.987 424.831 327.289 424.869C328.953 425.005 330.623 425.035 332.289 424.959C333.649 424.959 334.699 424.869 334.699 424.869C334.699 424.869 334.519 420.039 334.259 414.629C339.774 414.493 345.276 414.042 350.739 413.279C360.239 411.619 364.199 402.979 365.659 398.359C366.096 400.247 366.407 402.161 366.589 404.089C366.978 405.785 367.472 407.455 368.069 409.089C368.579 410.395 369.251 411.632 370.069 412.769C377.069 410.379 372.829 406.769 371.359 405.229C369.889 403.689 372.359 402.379 372.359 402.379C372.359 402.379 374.299 401.089 374.109 399.899C373.919 398.709 373.829 397.419 380.109 397.509C386.389 397.599 385.999 392.389 385.999 392.389ZM288.679 333.679C288.759 334.199 289.679 339.869 290.419 341.359C290.64 342.343 290.711 343.354 290.629 344.359C286.919 344.059 283.049 343.899 283.049 343.899C283.158 344.035 283.227 344.197 283.249 344.369L282.659 344.239L281.819 344.039L288.659 333.629L288.679 333.679ZM275.119 355.239L281.549 356.239L282.089 356.319C281.908 357.31 281.797 358.313 281.759 359.319C281.759 359.419 281.899 359.529 282.109 359.659C282.02 360.164 281.98 360.677 281.989 361.189C282.089 361.689 285.089 362.789 288.539 363.699C288.489 363.889 288.449 364.069 288.399 364.229C285.349 362.629 280.559 361.879 280.009 360.689C279.459 359.499 263.139 353.799 263.139 353.799L261.519 352.989L265.809 353.799L266.989 353.679C269.663 354.375 272.378 354.896 275.119 355.239Z" fill="url(#paint0_linear_1252_173)"/>
<path d="M365.02 396.388C365.02 396.388 362.47 411.828 349.5 414.108C336.53 416.388 293.23 415.938 293.23 415.938C293.23 415.938 268.47 412.368 259.52 391.458C250.57 370.548 244.81 362.218 252.52 361.858C260.23 361.498 301.58 375.858 303.95 376.018C306.32 376.178 367.31 344.228 365.02 396.388Z" fill="#919191"/>
<path opacity="0.05" d="M365.02 396.388C365.02 396.388 362.47 411.828 349.5 414.108C336.53 416.388 293.23 415.938 293.23 415.938C293.23 415.938 268.47 412.368 259.52 391.458C250.57 370.548 244.81 362.218 252.52 361.858C260.23 361.498 301.58 375.858 303.95 376.018C306.32 376.178 367.31 344.228 365.02 396.388Z" fill="black"/>
<path d="M248.908 413.58C249.31 414.569 249.972 415.43 250.825 416.073C251.677 416.716 252.687 417.116 253.748 417.23C254.273 417.263 254.8 417.232 255.318 417.14C260.068 416.32 271.208 414.4 275.138 415.14C277.498 415.57 281.868 414.92 284.978 414.34C287.048 413.95 288.568 413.58 288.568 413.58C288.568 413.58 284.908 401.43 284.458 401.07C284.008 400.71 268.008 391.07 268.008 391.07L255.348 390.16C253.644 390.415 252.103 391.318 251.048 392.68C249.718 394.3 248.568 396.95 248.488 401.3C248.278 412.01 248.908 413.58 248.908 413.58Z" fill="#919191"/>
<path opacity="0.05" d="M248.909 413.579C249.311 414.567 249.973 415.429 250.825 416.072C251.677 416.714 252.688 417.114 253.749 417.229C252.509 415.628 251.36 413.959 250.309 412.229L250.379 403.369C250.127 400.939 250.448 398.483 251.317 396.2C252.185 393.916 253.576 391.868 255.379 390.219C255.379 390.219 248.709 390.669 248.519 401.359C248.329 412.049 248.909 413.579 248.909 413.579Z" fill="black"/>
<path opacity="0.1" d="M303.82 394.199L315.61 384.969L334.15 366.699L329.15 366.469C328.4 366.949 326.3 368.469 326.22 370.289C326.13 372.519 321.22 370.449 318.65 371.719C316.08 372.989 303.58 389.019 301.39 388.909C299.2 388.799 297.46 387.799 296.54 389.359L296.48 389.459L303.82 394.199Z" fill="black"/>
<path opacity="0.1" d="M251.02 392.701C251.44 392.901 251.87 393.101 252.3 393.281C261.25 397.121 272.3 405.161 273.13 406.621C273.63 407.511 280.04 411.401 284.98 414.321C287.05 413.931 288.57 413.561 288.57 413.561C288.57 413.561 284.91 401.411 284.46 401.051C284.01 400.691 268.01 391.051 268.01 391.051L255.35 390.141C253.628 390.398 252.075 391.317 251.02 392.701Z" fill="black"/>
<path d="M226.182 366.52C227.362 369.44 237.322 380.68 237.322 380.68C237.322 380.68 243.622 388.9 252.582 392.68C261.542 396.46 272.582 404.56 273.402 406.02C273.932 406.96 281.072 411.26 286.092 414.21L287.222 414.87L289.712 416.32L291.032 417.07C291.032 417.07 294.092 414.62 297.142 412.15C300.192 409.68 303.142 407.26 303.142 407.15C303.142 407.04 304.422 403.77 304.142 403.59C303.862 403.41 303.372 402.23 302.212 400.76C300.987 399.13 299.394 397.814 297.562 396.92C294.911 395.558 292.797 393.342 291.562 390.63C291.562 390.63 291.162 390.34 290.562 389.95C289.318 389.095 287.928 388.475 286.462 388.12C284.462 387.87 280.702 383.76 280.702 383.76C279.239 382.808 278.02 381.527 277.142 380.02C276.142 378.02 262.012 368.28 260.702 367.38L295.042 389.44L303.262 394.72L315.052 385.5L333.592 367.23L327.472 366.95C318.472 366.56 302.472 365.95 300.472 366.41C298.833 366.787 297.145 366.899 295.472 366.74C295.472 366.74 290.912 366.94 287.892 365.35C284.872 363.76 280.122 363.01 279.572 361.83C279.022 360.65 262.862 354.99 262.862 354.99C262.862 354.99 240.862 343.3 232.992 350.24C225.122 357.18 224.992 363.58 226.182 366.52Z" fill="#919191"/>
<path d="M297.148 299.471L299.978 308.881L303.638 330.071L317.068 330.981L320.908 324.581L324.788 318.141C324.788 318.141 327.208 309.581 328.948 301.301C330.478 293.971 331.488 286.851 329.818 286.081C328.328 285.401 327.358 282.931 326.718 280.271C326.638 279.951 326.568 279.611 326.508 279.271C326.061 277.023 325.76 274.749 325.608 272.461C325.608 272.461 297.478 271.001 301.408 282.601C302.11 284.583 302.468 286.669 302.468 288.771C302.468 289.311 302.468 289.841 302.368 290.341C302.173 292.14 301.609 293.88 300.711 295.451C299.813 297.022 298.6 298.391 297.148 299.471Z" fill="#EE8E9E"/>
<path d="M291.309 297.918L292.309 313.918L294.589 327.528L297.149 333.838L299.439 368.318C299.439 368.318 321.439 370.868 326.819 368.268C327.215 368.116 327.562 367.856 327.819 367.518C334.289 357.748 332.169 329.448 332.169 329.448L334.629 311.178L332.989 301.698L328.989 301.278L325.929 300.948C325.929 300.948 325.239 301.798 324.239 303.118C321.529 306.688 316.549 313.728 316.889 316.658C317.339 320.658 316.339 324.788 314.779 325.428C313.219 326.068 311.949 327.168 311.679 326.068C311.29 325.146 311.192 324.127 311.399 323.148C311.679 321.588 310.209 316.838 310.209 316.838C310.209 316.838 307.749 311.268 307.929 308.898C308.109 306.528 307.659 303.778 306.929 303.138C306.199 302.498 305.189 301.858 306.009 298.938C306.829 296.018 302.409 290.328 302.409 290.328L291.309 297.918Z" fill="#E3E8F4"/>
<path opacity="0.1" d="M320.4 337.839L321.32 365.149L326.59 368.079C326.985 367.92 327.331 367.657 327.59 367.319C334.06 357.549 331.94 329.249 331.94 329.249L334.41 310.979L332.76 301.499L328.76 301.079C330.3 293.749 331.3 286.639 329.63 285.859C328.14 285.179 327.17 282.709 326.54 280.059L323.69 299.379C323.69 299.379 323.93 301.119 324.01 302.919C324.128 304.057 324.05 305.207 323.78 306.319C323.41 307.814 323.349 309.369 323.6 310.889C321.95 313.789 321.13 319.169 320.73 324.359C320.19 331.259 320.4 337.839 320.4 337.839Z" fill="black"/>
<path d="M326.621 279.578C326.621 279.578 331.231 280.148 332.691 282.068C334.151 283.988 337.991 284.268 337.991 284.268C337.991 284.268 342.371 285.728 342.281 286.088C342.191 286.448 343.561 287.008 346.281 287.738C349.001 288.468 353.591 291.118 353.591 291.738C353.591 292.358 360.801 299.498 360.801 300.228C360.801 300.958 362.991 303.698 362.721 308.538C362.451 313.378 362.171 319.538 363.271 320.538C364.371 321.538 363.271 325.468 363.271 325.468C362.976 325.896 362.81 326.4 362.794 326.92C362.778 327.44 362.912 327.953 363.181 328.398C364.091 330.038 362.991 336.888 362.991 336.888L363.091 344.018C363.091 344.018 362.091 348.488 363.271 348.678C364.451 348.868 363.091 350.868 363.091 350.868C363.091 350.868 362.091 354.518 363.361 356.168C364.631 357.818 365.001 364.838 365.001 364.838L384.551 393.248C384.551 393.248 384.831 398.458 378.621 398.368C372.411 398.278 372.491 399.558 372.681 400.738C372.871 401.918 370.941 403.208 370.941 403.208C370.941 403.208 368.481 404.488 369.941 406.038C371.401 407.588 375.601 411.158 368.661 413.528C367.843 412.401 367.171 411.174 366.661 409.878C366.073 408.267 365.585 406.62 365.201 404.948C365.201 404.948 364.561 397.998 363.281 397.088C362.001 396.178 362.181 391.788 362.181 391.788C362.181 391.788 364.011 388.228 361.451 386.788C358.891 385.348 321.811 364.788 321.811 364.788L320.911 337.468C320.911 337.468 320.271 317.278 324.111 310.518C323.86 308.998 323.922 307.443 324.291 305.948C324.931 304.308 324.201 299.008 324.201 299.008L326.621 279.578Z" fill="#919191"/>
<path opacity="0.1" d="M302.679 290.578C302.679 290.578 293.499 288.688 291.029 289.968C288.559 291.248 283.729 292.248 283.029 292.968C282.329 293.688 280.479 293.158 278.829 297.448C277.179 301.738 277.009 306.128 274.899 308.138C272.789 310.148 271.709 311.518 271.619 312.978C271.529 314.438 271.889 314.808 271.069 315.258C270.249 315.708 269.069 317.638 269.419 318.368C269.769 319.098 288.419 335.178 288.419 335.178C288.419 335.178 289.339 341.298 290.159 342.848C290.979 344.398 289.249 365.778 287.419 367.238C285.589 368.698 299.709 368.578 299.709 368.578C299.709 368.578 300.349 354.578 300.899 353.818C301.449 353.058 300.529 338.108 300.529 338.108C300.529 338.108 300.439 325.318 301.629 321.938C302.819 318.558 302.629 307.318 302.629 307.318C302.629 307.318 303.679 300.578 304.959 299.008C306.239 297.438 302.679 290.578 302.679 290.578Z" fill="black"/>
<path d="M302.409 290.309C302.409 290.309 293.229 288.419 290.759 289.689C288.289 290.959 283.449 291.979 282.759 292.689C282.069 293.399 280.199 292.869 278.559 297.169C276.919 301.469 276.729 305.839 274.629 307.849C272.529 309.859 271.429 311.229 271.339 312.689C271.249 314.149 271.619 314.519 270.789 314.979C269.959 315.439 268.789 317.349 269.149 318.079C269.509 318.809 288.149 334.889 288.149 334.889C288.149 334.889 289.059 341.009 289.889 342.559C290.719 344.109 288.969 365.489 287.139 366.949C285.309 368.409 299.479 368.279 299.479 368.279C299.479 368.279 300.119 354.279 300.659 353.529C301.199 352.779 300.299 337.809 300.299 337.809C300.299 337.809 300.209 325.029 301.399 321.649C302.589 318.269 302.449 307.029 302.449 307.029C302.449 307.029 303.499 300.289 304.779 298.719C306.059 297.149 302.409 290.309 302.409 290.309Z" fill="#919191"/>
<path opacity="0.1" d="M301.451 282.579C302.152 284.561 302.511 286.647 302.511 288.749C306.998 290.063 311.796 289.842 316.143 288.122C320.491 286.401 324.139 283.278 326.511 279.249C326.063 277.001 325.763 274.726 325.611 272.439C325.611 272.439 297.521 270.969 301.451 282.579Z" fill="black"/>
<path d="M287.559 268.139C287.555 273.5 289.609 278.659 293.297 282.55C296.985 286.441 302.026 288.769 307.38 289.053C312.733 289.337 317.992 287.556 322.071 284.077C326.15 280.597 328.739 275.685 329.303 270.354C329.866 265.022 328.363 259.677 325.101 255.422C321.84 251.166 317.07 248.324 311.776 247.482C306.481 246.64 301.065 247.862 296.644 250.897C292.224 253.931 289.136 258.545 288.019 263.789C287.712 265.218 287.558 266.677 287.559 268.139Z" fill="#EE8E9E"/>
<path d="M274.131 316.578L269.131 318.128C269.259 318.632 269.231 319.164 269.053 319.652C268.875 320.141 268.553 320.565 268.131 320.868C267.696 321.172 267.349 321.585 267.126 322.067C266.903 322.548 266.811 323.08 266.861 323.608C266.861 323.608 266.311 325.608 265.031 326.078C263.751 326.548 262.931 329.548 262.931 329.548L258.731 334.388C258.731 334.388 257.171 335.668 257.451 336.308C257.731 336.948 255.801 337.128 255.801 337.128L256.801 353.388L265.481 355.038L270.871 354.488L275.251 352.848L279.091 350.558L280.821 346.088L288.501 334.388L274.131 316.578Z" fill="#919191"/>
<path d="M257.048 338.381C257.048 338.381 245.908 322.311 237.588 330.981C229.268 339.651 240.968 353.731 243.708 353.271C246.448 352.811 259.518 352.081 259.518 352.081L257.048 338.381Z" fill="#EE8E9E"/>
<path d="M283.293 331.431L234.083 306.313C233.325 305.927 232.397 306.227 232.011 306.985L212.822 344.581C212.435 345.338 212.736 346.266 213.493 346.653L262.704 371.77C263.461 372.157 264.389 371.856 264.776 371.098L283.965 333.502C284.351 332.745 284.051 331.817 283.293 331.431Z" fill="#919191"/>
<path d="M278.717 333.665L235.047 311.375L218.249 344.286L261.919 366.576L278.717 333.665Z" fill="#FF0000"/>
<path d="M224.972 327.76C225.414 327.76 225.772 327.402 225.772 326.96C225.772 326.518 225.414 326.16 224.972 326.16C224.53 326.16 224.172 326.518 224.172 326.96C224.172 327.402 224.53 327.76 224.972 327.76Z" fill="#E6E8EC"/>
<path d="M272.24 352.512C272.975 352.512 273.57 351.916 273.57 351.182C273.57 350.447 272.975 349.852 272.24 349.852C271.506 349.852 270.91 350.447 270.91 351.182C270.91 351.916 271.506 352.512 272.24 352.512Z" fill="#E6E8EC"/>
<path d="M249.84 341.762C249.74 353.822 274.68 356.382 274.68 356.382L281.05 357.382L283.91 357.832L285.1 346.052C285.1 346.052 283.79 345.852 282.16 345.472C279.74 344.912 276.61 343.942 275.96 342.572C274.91 340.302 249.91 329.702 249.84 341.762Z" fill="#EE8E9E"/>
<path opacity="0.1" d="M288.02 263.789C288.593 263.832 289.134 264.072 289.55 264.469C290.25 265.219 290.29 266.549 291.21 267.009C291.553 267.155 291.932 267.196 292.3 267.129C294.73 266.789 296.13 264.049 298.47 263.289C299.83 262.94 301.269 263.063 302.55 263.639C303.07 263.808 303.538 264.108 303.91 264.509C304.69 265.509 304.14 267.009 304.5 268.229C305 269.929 307.03 270.599 308.78 270.819C310.53 271.039 312.51 271.169 313.68 272.489C314.067 272.984 314.345 273.556 314.495 274.166C314.645 274.776 314.663 275.411 314.55 276.029C314.444 276.46 314.444 276.909 314.55 277.339C315.03 278.709 317.4 278.499 318.02 277.419C318.48 276.629 318.34 275.979 319.41 275.759C320.174 275.699 320.941 275.833 321.64 276.149C323.501 276.788 325.462 277.09 327.43 277.039C328.681 274.37 329.354 271.466 329.405 268.519C329.456 265.571 328.883 262.646 327.724 259.935C326.566 257.224 324.847 254.789 322.681 252.789C320.515 250.789 317.951 249.269 315.157 248.329C312.362 247.39 309.401 247.051 306.467 247.336C303.532 247.621 300.691 248.523 298.13 249.983C295.569 251.442 293.345 253.427 291.604 255.806C289.863 258.186 288.645 260.906 288.03 263.789H288.02Z" fill="black"/>
<path d="M314.54 276.791C314.435 276.36 314.435 275.911 314.54 275.481C314.654 274.864 314.635 274.231 314.485 273.622C314.335 273.013 314.057 272.444 313.67 271.951C312.5 270.621 310.53 270.501 308.77 270.271C307.01 270.041 304.99 269.381 304.49 267.681C304.13 266.461 304.68 264.971 303.9 263.971C303.534 263.562 303.064 263.261 302.54 263.101C301.26 262.522 299.821 262.395 298.46 262.741C296.12 263.501 294.72 266.241 292.29 266.581C291.923 266.653 291.542 266.611 291.2 266.461C290.28 266.001 290.2 264.671 289.54 263.921C288.43 262.751 286.32 263.511 284.97 262.641C284.151 261.958 283.622 260.989 283.49 259.931C282.885 257.97 282.748 255.894 283.09 253.871C283.88 250.481 286.92 248.151 288.85 245.241C290.66 242.541 291.68 239.121 294.39 237.331C297.1 235.541 300.59 235.941 303.66 236.851C305.071 237.354 306.523 237.736 308 237.991C310.47 238.291 312.95 237.621 315.43 237.541C318.945 237.427 322.398 238.482 325.25 240.541C325.893 240.96 326.438 241.513 326.85 242.161C327.262 243.08 327.506 244.066 327.57 245.071C327.862 246.959 328.517 248.772 329.5 250.411C330.26 251.701 331.23 252.861 331.92 254.191C332.691 255.495 332.928 257.046 332.58 258.521C332.34 259.271 331.88 259.951 331.7 260.721C331.3 262.501 332.47 264.211 333.27 265.851C334.048 267.352 334.417 269.032 334.34 270.721C334.297 271.563 334.08 272.386 333.704 273.14C333.327 273.894 332.798 274.562 332.15 275.101C330.792 276.043 329.172 276.536 327.52 276.511C325.515 276.572 323.517 276.27 321.62 275.621C320.92 275.309 320.154 275.175 319.39 275.231C318.32 275.451 318.46 276.101 318 276.891C317.39 277.951 315.03 278.161 314.54 276.791Z" fill="#919191"/>
<path opacity="0.1" d="M303.271 394.739L315.061 385.519L333.601 367.249L327.481 366.969C326.762 367.618 326.304 368.507 326.191 369.469C326.101 371.699 321.191 369.619 318.621 370.899C316.051 372.179 303.551 388.199 301.361 388.089C299.171 387.979 297.431 386.979 296.511 388.529L296.451 388.629C296.086 389.049 295.595 389.34 295.051 389.459L303.271 394.739Z" fill="black"/>
<path d="M279.52 394.099L285.44 413.009L286.37 416.009L289.19 415.239L295.41 413.529L323.09 405.929C326.576 405.777 329.988 404.87 333.09 403.269C338.323 400.336 344.311 399.031 350.29 399.519C353.95 399.859 358.02 398.279 361.4 392.039C361.4 392.039 369.07 369.389 349.71 362.899C330.35 356.409 329.42 366.349 329.42 366.349L329.15 366.509C328.4 366.989 326.3 368.509 326.22 370.329C326.13 372.559 321.22 370.489 318.65 371.759C316.08 373.029 303.58 389.059 301.39 388.949C299.2 388.839 297.46 387.839 296.54 389.399L296.48 389.499C295.8 390.429 293.77 390.649 292.42 390.679C292 390.701 291.579 390.701 291.16 390.679L290.98 390.729L289.58 391.149L279.52 394.099Z" fill="#919191"/>
<path opacity="0.1" d="M281.051 357.39L283.911 357.84L285.101 346.06C285.101 346.06 283.791 345.86 282.161 345.48C282.591 347.13 281.611 353.48 281.051 357.39Z" fill="black"/>
<path opacity="0.1" d="M355.749 302.329C355.749 302.329 364.239 299.859 362.139 323.979C360.681 338.7 354.423 352.534 344.329 363.349C344.329 363.349 326.239 371.289 318.109 370.009C309.979 368.729 304.049 368.459 304.049 368.459C301.487 367.166 298.684 366.42 295.819 366.269C291.259 366.089 281.669 363.269 281.479 362.339C281.289 361.409 283.859 347.999 282.759 346.999C282.759 346.999 295.549 347.519 296.829 348.439C298.109 349.359 299.939 348.709 301.309 348.439C302.679 348.169 306.879 344.529 315.189 347.729C315.189 347.729 318.019 347.999 319.119 347.269C320.016 346.851 321.037 346.787 321.979 347.089C322.69 346.853 323.363 346.516 323.979 346.089C324.249 345.729 326.449 346.089 326.449 346.089C326.58 346.147 326.722 346.177 326.865 346.176C327.009 346.175 327.15 346.143 327.28 346.082C327.41 346.021 327.525 345.933 327.618 345.824C327.711 345.715 327.78 345.587 327.819 345.449C328.108 344.704 328.543 344.024 329.099 343.449C329.099 343.449 331.559 329.569 336.219 324.359C336.591 324.034 336.877 323.622 337.051 323.159C337.226 322.697 337.283 322.199 337.219 321.709C336.839 320.229 344.789 299.399 355.749 302.329Z" fill="black"/>
<path d="M355.519 300.47C355.519 300.47 364.019 298.01 361.919 322.12C360.465 336.843 354.206 350.678 344.109 361.49C344.109 361.49 326.019 369.44 317.889 368.16C309.759 366.88 303.819 366.58 303.819 366.58C301.261 365.286 298.462 364.54 295.599 364.39C291.029 364.2 281.439 361.39 281.259 360.46C281.079 359.53 283.629 346.12 282.539 345.11C282.539 345.11 295.329 345.64 296.609 346.56C297.889 347.48 299.709 346.82 301.079 346.56C302.449 346.3 306.649 342.65 314.969 345.84C314.969 345.84 317.799 346.12 318.889 345.39C319.786 344.976 320.805 344.908 321.749 345.2C322.458 344.959 323.131 344.622 323.749 344.2C324.019 343.83 326.209 344.2 326.209 344.2C326.34 344.259 326.482 344.289 326.626 344.287C326.769 344.286 326.91 344.254 327.04 344.193C327.17 344.133 327.286 344.045 327.379 343.936C327.472 343.826 327.54 343.698 327.579 343.56C327.868 342.815 328.304 342.135 328.859 341.56C328.859 341.56 331.329 327.68 335.989 322.47C336.361 322.145 336.647 321.733 336.822 321.271C336.996 320.809 337.054 320.31 336.989 319.82C336.619 318.38 344.559 297.58 355.519 300.47Z" fill="#919191"/>
<path opacity="0.1" d="M289.551 391.1L301.611 405.7L301.691 405.62C301.781 405.34 302.971 402.24 302.691 402.05C302.411 401.86 300.321 397.3 296.121 395.38C293.984 394.338 292.191 392.707 290.951 390.68L289.551 391.1Z" fill="black"/>
<path opacity="0.1" d="M289.71 416.368L291.03 417.118C291.03 417.118 294.09 414.668 297.14 412.198C300.19 409.728 303.14 407.308 303.14 407.198C303.14 407.088 304.42 403.818 304.14 403.638C303.86 403.458 303.37 402.278 302.21 400.808C294.03 398.518 299.21 404.198 299.93 404.458C299.93 404.458 289.98 402.168 289.43 413.018C289.382 414.142 289.477 415.268 289.71 416.368Z" fill="black"/>
<path d="M299.8 420.959L301.54 421.959L319.17 422.409C321.147 423.611 323.237 424.616 325.41 425.409C325.698 425.495 325.992 425.558 326.29 425.599C327.927 425.733 329.57 425.763 331.21 425.689C332.56 425.689 333.6 425.599 333.6 425.599C333.6 425.599 332.77 403.369 332.14 401.029C331.84 399.909 330.36 400.149 328.9 400.709C327.806 401.157 326.749 401.692 325.74 402.309C325.74 402.309 318.26 403.039 317.07 403.679C315.88 404.319 312.5 403.309 310.4 403.679C308.3 404.049 304.55 401.209 304.55 401.209C294.32 397.829 300.08 404.129 300.81 404.409C300.81 404.409 290.81 402.119 290.3 412.969C289.79 423.819 299.8 420.959 299.8 420.959Z" fill="#919191"/>
<path d="M325.29 412.378C325.48 416.978 329.07 422.688 331.21 425.708C332.56 425.708 333.6 425.618 333.6 425.618C333.6 425.618 332.77 403.388 332.14 401.048C331.84 399.928 330.36 400.168 328.9 400.728C327.13 404.048 325.13 408.658 325.29 412.378Z" fill="#919191"/>
<path opacity="0.1" d="M325.29 412.378C325.48 416.978 329.07 422.688 331.21 425.708C332.56 425.708 333.6 425.618 333.6 425.618C333.6 425.618 332.77 403.388 332.14 401.048C331.84 399.928 330.36 400.168 328.9 400.728C327.13 404.048 325.13 408.658 325.29 412.378Z" fill="black"/>
<path opacity="0.05" d="M322.27 412.988C323.49 417.428 323.47 422.408 325.41 425.428C325.698 425.514 325.992 425.577 326.29 425.618C327.926 425.752 329.569 425.782 331.21 425.708C332.56 425.708 333.6 425.618 333.6 425.618C333.6 425.618 332.77 403.388 332.14 401.048C331.84 399.928 330.36 400.168 328.9 400.728C327.805 401.176 326.749 401.711 325.74 402.328C325.74 402.328 320.72 407.298 322.27 412.988Z" fill="black"/>
<path opacity="0.1" d="M261.449 367.922C261.449 367.922 270.209 370.762 277.629 380.862L261.449 367.922Z" fill="black"/>
<g opacity="0.1">
<path d="M332.61 258.301C332.61 258.371 332.61 258.431 332.56 258.501C332.476 258.761 332.372 259.015 332.25 259.261C332.346 258.932 332.467 258.612 332.61 258.301Z" fill="black"/>
<path d="M283.069 253.871C283.218 253.232 283.446 252.614 283.749 252.031C283.749 252.181 283.649 252.341 283.609 252.501C283.276 254.526 283.416 256.6 284.019 258.561C284.152 259.617 284.677 260.584 285.489 261.271C286.849 262.141 288.959 261.381 290.069 262.551C290.769 263.301 290.809 264.631 291.729 265.091C292.072 265.241 292.452 265.283 292.819 265.211C295.249 264.871 296.649 262.131 298.989 261.371C300.35 261.021 301.791 261.148 303.069 261.731C303.594 261.892 304.064 262.192 304.429 262.601C305.209 263.601 304.659 265.091 305.019 266.311C305.519 268.011 307.549 268.681 309.299 268.901C311.049 269.121 313.029 269.251 314.199 270.581C314.587 271.074 314.865 271.644 315.015 272.252C315.165 272.861 315.183 273.495 315.069 274.111C314.964 274.542 314.964 274.991 315.069 275.421C315.549 276.791 317.919 276.581 318.539 275.501C318.999 274.711 318.859 274.061 319.929 273.841C320.693 273.786 321.459 273.92 322.159 274.231C324.056 274.881 326.055 275.182 328.059 275.121C329.712 275.147 331.331 274.653 332.689 273.711C333.283 273.245 333.768 272.654 334.109 271.981C333.8 273.206 333.098 274.295 332.109 275.081C330.751 276.023 329.132 276.517 327.479 276.491C325.475 276.552 323.476 276.251 321.579 275.601C320.879 275.29 320.113 275.156 319.349 275.211C318.279 275.431 318.419 276.081 317.969 276.871C317.339 277.951 314.969 278.161 314.489 276.791C314.389 276.36 314.389 275.912 314.489 275.481C314.603 274.865 314.585 274.231 314.435 273.622C314.285 273.014 314.007 272.444 313.619 271.951C312.449 270.621 310.479 270.501 308.719 270.271C306.959 270.041 304.939 269.381 304.439 267.681C304.079 266.461 304.629 264.971 303.849 263.971C303.487 263.564 303.02 263.263 302.499 263.101C301.216 262.523 299.774 262.396 298.409 262.741C296.079 263.501 294.669 266.241 292.239 266.581C291.872 266.653 291.492 266.611 291.149 266.461C290.229 266.001 290.149 264.671 289.489 263.921C288.379 262.751 286.279 263.511 284.919 262.641C284.1 261.958 283.572 260.989 283.439 259.931C282.845 257.968 282.718 255.892 283.069 253.871Z" fill="black"/>
<path opacity="0.1" d="M334.031 326.989C332.351 329.249 330.441 331.339 328.961 333.719C327.354 336.066 326.573 338.88 326.741 341.719C328.271 340.149 328.981 337.969 329.941 335.999C331.581 332.659 334.021 329.829 336.091 326.769C336.481 326.179 339.001 322.769 337.731 322.629C336.671 322.479 334.601 326.219 334.031 326.989Z" fill="black"/>
<path d="M343.03 540.962C344.24 544.842 345.46 548.732 346.97 552.502C349.691 559.056 353.114 565.296 357.18 571.112C359.802 574.941 362.619 578.633 365.62 582.172C369.38 586.602 373.62 591.062 374.9 596.722C375.67 599.992 375.41 603.402 375.73 606.722C376.05 610.042 377.14 613.602 379.85 615.602C381.78 617.032 384.25 617.462 386.62 617.832C388.32 618.102 390.44 618.192 391.32 616.722C391.628 616.121 391.789 615.457 391.79 614.782L392.2 609.892C392.28 608.832 392.66 607.482 393.72 607.432C394.78 607.382 395.31 608.792 396.21 609.432C397.41 610.272 399.21 609.432 399.87 608.162C400.418 606.787 400.454 605.261 399.97 603.862C399.242 601.078 397.933 598.481 396.128 596.24C394.323 593.999 392.065 592.166 389.5 590.862C387.72 590.144 386.012 589.256 384.4 588.212C382.764 586.789 381.407 585.073 380.4 583.152C371.12 567.872 361.79 552.512 355.24 535.882C353.95 532.91 353.078 529.773 352.65 526.562C352.33 523.292 352.84 520.002 353.05 516.722C353.438 510.83 352.891 504.913 351.43 499.192C351.111 497.69 350.547 496.251 349.76 494.932C347.06 490.842 340.76 490.232 336.76 493.052C335.288 494.185 334.066 495.612 333.175 497.242C332.283 498.872 331.74 500.67 331.58 502.522C331.29 505.842 333.2 509.282 334.17 512.372C337.11 521.912 340.064 531.442 343.03 540.962Z" fill="#A1616A"/>
<path opacity="0.05" d="M343.03 540.962C344.24 544.842 345.46 548.732 346.97 552.502C349.691 559.056 353.114 565.296 357.18 571.112C359.802 574.941 362.619 578.633 365.62 582.172C369.38 586.602 373.62 591.062 374.9 596.722C375.67 599.992 375.41 603.402 375.73 606.722C376.05 610.042 377.14 613.602 379.85 615.602C381.78 617.032 384.25 617.462 386.62 617.832C388.32 618.102 390.44 618.192 391.32 616.722C391.628 616.121 391.789 615.457 391.79 614.782L392.2 609.892C392.28 608.832 392.66 607.482 393.72 607.432C394.78 607.382 395.31 608.792 396.21 609.432C397.41 610.272 399.21 609.432 399.87 608.162C400.418 606.787 400.454 605.261 399.97 603.862C399.242 601.078 397.933 598.481 396.128 596.24C394.323 593.999 392.065 592.166 389.5 590.862C387.72 590.144 386.012 589.256 384.4 588.212C382.764 586.789 381.407 585.073 380.4 583.152C371.12 567.872 361.79 552.512 355.24 535.882C353.95 532.91 353.078 529.773 352.65 526.562C352.33 523.292 352.84 520.002 353.05 516.722C353.438 510.83 352.891 504.913 351.43 499.192C351.111 497.69 350.547 496.251 349.76 494.932C347.06 490.842 340.76 490.232 336.76 493.052C335.288 494.185 334.066 495.612 333.175 497.242C332.283 498.872 331.74 500.67 331.58 502.522C331.29 505.842 333.2 509.282 334.17 512.372C337.11 521.912 340.064 531.442 343.03 540.962Z" fill="black"/>
<path d="M284.729 704.34C286.539 704.969 288.462 705.201 290.369 705.02C290.509 703.46 292.609 703.11 294.169 703.19C294.924 703.165 295.672 703.337 296.339 703.69C296.729 703.94 297.029 704.3 297.409 704.56C298.087 704.931 298.847 705.127 299.619 705.13L307.739 705.81C311.359 706.12 315.129 706.4 318.519 705.11C319.195 704.896 319.795 704.493 320.249 703.95C321.169 702.63 320.249 700.74 318.979 699.78C317.709 698.82 316.069 698.39 314.789 697.41C311.969 695.26 311.579 691.24 310.089 688.02C309.03 685.99 307.724 684.098 306.199 682.39C305.095 680.922 303.808 679.602 302.369 678.46C299.109 676.11 295.369 676.16 291.539 675.82C288.839 675.58 286.299 675.42 284.359 677.82C281.959 680.82 282.919 686.82 283.069 690.32C283.257 695.029 283.812 699.717 284.729 704.34Z" fill="#919191"/>
<path opacity="0.05" d="M284.729 704.34C286.539 704.969 288.462 705.201 290.369 705.02C290.509 703.46 292.609 703.11 294.169 703.19C294.924 703.165 295.672 703.337 296.339 703.69C296.729 703.94 297.029 704.3 297.409 704.56C298.087 704.931 298.847 705.127 299.619 705.13L307.739 705.81C311.359 706.12 315.129 706.4 318.519 705.11C319.195 704.896 319.795 704.493 320.249 703.95C321.169 702.63 320.249 700.74 318.979 699.78C317.709 698.82 316.069 698.39 314.789 697.41C311.969 695.26 311.579 691.24 310.089 688.02C309.03 685.99 307.724 684.098 306.199 682.39C305.095 680.922 303.808 679.602 302.369 678.46C299.109 676.11 295.369 676.16 291.539 675.82C288.839 675.58 286.299 675.42 284.359 677.82C281.959 680.82 282.919 686.82 283.069 690.32C283.257 695.029 283.812 699.717 284.729 704.34Z" fill="black"/>
<path d="M288.01 546.39C285.53 547.19 284.45 550.28 284.91 552.85C285.37 555.42 286.91 557.64 288.18 559.92C291.8 566.39 293.36 573.79 296.4 580.54C298.67 585.54 301.74 590.24 303.98 595.3C306.22 600.36 307.61 606.07 306.25 611.44C305.59 614.05 304.31 616.44 303.46 619.01C302.619 621.795 302.069 624.661 301.82 627.56C300.719 637.408 300.522 647.336 301.23 657.22C301.236 658.425 301.488 659.616 301.97 660.72C302.48 661.72 303.36 662.72 302.97 663.72C302.8 664.13 302.43 664.43 302.25 664.83C301.73 665.95 302.77 667.14 303.72 667.94C303.551 668.24 303.323 668.504 303.05 668.715C302.776 668.927 302.464 669.081 302.13 669.17C302.812 669.604 303.335 670.245 303.623 671C303.912 671.755 303.949 672.582 303.73 673.36C302.89 673.49 302.84 674.78 303.37 675.46C303.9 676.14 304.74 676.56 305.12 677.33C305.344 677.957 305.32 678.646 305.052 679.256C304.784 679.866 304.293 680.35 303.68 680.61C302.431 681.091 301.068 681.195 299.76 680.91C297.543 680.601 295.353 680.12 293.21 679.47C292.09 679.25 291.087 678.633 290.386 677.733C289.684 676.833 289.33 675.71 289.39 674.57C288.895 670.5 288.745 666.395 288.94 662.3C289.29 642.46 288.94 622.6 288.08 602.77C287.73 594.77 285.33 587.02 282.24 579.66C280.532 575.899 278.633 572.227 276.55 568.66C272.09 560.5 268.15 551.46 269.17 542.21C269.28 541.21 269.64 540.02 270.63 539.86C271.017 539.818 271.408 539.884 271.76 540.05C273.815 541.009 275.802 542.105 277.71 543.33C280.845 545.168 284.38 546.218 288.01 546.39Z" fill="#919191"/>
<path opacity="0.05" d="M288.01 546.39C285.53 547.19 284.45 550.28 284.91 552.85C285.37 555.42 286.91 557.64 288.18 559.92C291.8 566.39 293.36 573.79 296.4 580.54C298.67 585.54 301.74 590.24 303.98 595.3C306.22 600.36 307.61 606.07 306.25 611.44C305.59 614.05 304.31 616.44 303.46 619.01C302.619 621.795 302.069 624.661 301.82 627.56C300.719 637.408 300.522 647.336 301.23 657.22C301.236 658.425 301.488 659.616 301.97 660.72C302.48 661.72 303.36 662.72 302.97 663.72C302.8 664.13 302.43 664.43 302.25 664.83C301.73 665.95 302.77 667.14 303.72 667.94C303.551 668.24 303.323 668.504 303.05 668.715C302.776 668.927 302.464 669.081 302.13 669.17C302.812 669.604 303.335 670.245 303.623 671C303.912 671.755 303.949 672.582 303.73 673.36C302.89 673.49 302.84 674.78 303.37 675.46C303.9 676.14 304.74 676.56 305.12 677.33C305.344 677.957 305.32 678.646 305.052 679.256C304.784 679.866 304.293 680.35 303.68 680.61C302.431 681.091 301.068 681.195 299.76 680.91C297.543 680.601 295.353 680.12 293.21 679.47C292.09 679.25 291.087 678.633 290.386 677.733C289.684 676.833 289.33 675.71 289.39 674.57C288.895 670.5 288.745 666.395 288.94 662.3C289.29 642.46 288.94 622.6 288.08 602.77C287.73 594.77 285.33 587.02 282.24 579.66C280.532 575.899 278.633 572.227 276.55 568.66C272.09 560.5 268.15 551.46 269.17 542.21C269.28 541.21 269.64 540.02 270.63 539.86C271.017 539.818 271.408 539.884 271.76 540.05C273.815 541.009 275.802 542.105 277.71 543.33C280.845 545.168 284.38 546.218 288.01 546.39Z" fill="black"/>
<path d="M254.48 522.27C253.187 521.44 251.696 520.97 250.16 520.91C248.38 521 246.86 522.17 245.47 523.29C243.823 524.554 242.26 525.924 240.79 527.39C237.747 530.634 235.626 534.633 234.649 538.973C233.671 543.312 233.872 547.834 235.23 552.07C236.7 556.48 239.39 560.37 242.05 564.18L247.45 571.94C255.69 583.77 263.93 595.6 272.56 607.15C272.562 607.434 272.654 607.71 272.823 607.938C272.992 608.167 273.229 608.335 273.5 608.42C273.81 608.5 274.2 608.49 274.39 608.75C274.478 608.912 274.517 609.097 274.5 609.28C274.481 610.134 274.319 610.979 274.02 611.78C273.88 612.044 273.845 612.351 273.92 612.64C274.2 613.29 275.38 612.92 275.76 613.53C276.01 613.93 275.7 614.45 275.37 614.79C275.04 615.13 274.63 615.51 274.69 615.98C274.75 616.45 275.57 616.98 275.54 617.56C275.54 617.9 275.24 618.16 275.03 618.43C274.736 618.86 274.603 619.38 274.652 619.899C274.701 620.418 274.931 620.903 275.3 621.27C275.87 626.91 272.8 632.27 272.19 637.89C271.19 646.77 275.24 655.44 275.73 664.35C275.701 665.353 275.892 666.35 276.29 667.27C277.12 668.81 279.29 669.74 279.18 671.49C279.023 672.209 278.82 672.918 278.57 673.61C278.4 674.61 278.88 675.61 278.9 676.61C278.92 677.61 278.03 678.84 277.09 678.44C277.797 680.8 278.427 683.18 278.98 685.58L297.88 687.14C298.084 685.441 298.027 683.722 297.71 682.04C297.32 680.21 296.5 678.51 296.07 676.7C295.791 675.809 295.712 674.867 295.84 673.942C295.968 673.017 296.299 672.132 296.81 671.35C296.318 671.356 295.839 671.188 295.458 670.875C295.078 670.562 294.82 670.125 294.73 669.64C294.572 668.665 294.589 667.669 294.78 666.7C295.28 661.77 293.21 656.91 293.27 651.96C293.33 648.06 294.7 644.31 295.39 640.48C296.87 632.28 295.33 623.39 298.98 615.9C301.19 611.39 304.25 606.39 301.77 602.02C300.55 599.86 298.39 598.38 296.98 596.34C295.831 594.412 294.969 592.327 294.42 590.15C291.51 581.15 286.8 572.79 282.67 564.23C281.524 562.085 280.673 559.794 280.14 557.42C279.849 555.337 279.742 553.232 279.82 551.13C279.82 547.356 279.59 543.586 279.13 539.84C279.037 538.199 278.568 536.601 277.76 535.17C276.944 534.087 275.925 533.174 274.76 532.48C268.56 528.23 261.18 525.8 254.48 522.27Z" fill="#919191"/>
<path d="M277.131 711.27C278.946 711.891 280.871 712.119 282.781 711.94C282.921 710.38 285.011 710.03 286.571 710.11C287.326 710.085 288.073 710.257 288.741 710.61C289.131 710.86 289.431 711.23 289.821 711.48C290.497 711.856 291.258 712.052 292.031 712.05L300.141 712.73C303.771 713.04 307.531 713.33 310.931 712.03C311.605 711.819 312.203 711.416 312.651 710.87C313.571 709.55 312.651 707.67 311.381 706.71C310.111 705.75 308.471 705.31 307.201 704.33C304.371 702.18 303.991 698.17 302.491 694.95C301.442 692.913 300.138 691.018 298.611 689.31C297.503 687.845 296.212 686.528 294.771 685.39C291.521 683.03 287.771 683.08 283.951 682.74C281.241 682.5 278.701 682.35 276.771 684.74C274.371 687.74 275.331 693.74 275.471 697.25C275.659 701.959 276.214 706.647 277.131 711.27Z" fill="#919191"/>
<path d="M360.9 489.542C371.238 489.542 379.62 481.16 379.62 470.822C379.62 460.483 371.238 452.102 360.9 452.102C350.561 452.102 342.18 460.483 342.18 470.822C342.18 481.16 350.561 489.542 360.9 489.542Z" fill="#A1616A"/>
<path d="M343.239 476.381C340.559 478.691 336.709 478.861 333.189 479.221C325.662 479.995 318.335 482.115 311.559 485.481C310.621 485.886 309.771 486.47 309.059 487.201C308.45 487.995 308.018 488.908 307.789 489.881C307.145 491.987 306.904 494.196 307.079 496.391C307.324 498.521 307.936 500.591 308.889 502.511C311.487 507.89 315.496 512.462 320.489 515.741C321.369 516.397 322.367 516.876 323.429 517.151C325.889 517.661 328.269 516.241 330.699 515.601C332.909 515.025 335.239 515.098 337.409 515.811C339.409 516.491 341.599 517.731 343.579 516.901C344.846 516.193 345.831 515.07 346.369 513.721C348.281 510.108 349.987 506.388 351.479 502.581C352.015 501.095 352.632 499.64 353.329 498.221C355.499 494.091 359.249 490.901 361.119 486.611C361.309 486.284 361.423 485.919 361.454 485.542C361.485 485.165 361.432 484.785 361.299 484.431C360.952 483.953 360.472 483.588 359.919 483.381C357.154 481.798 354.634 479.821 352.439 477.511C351.209 476.331 348.949 473.141 347.179 472.861C345.189 472.521 344.589 475.221 343.239 476.381Z" fill="#A1616A"/>
<path d="M343.678 514.421C341.508 515.421 338.948 514.991 336.598 514.501C330.538 513.231 324.408 511.951 318.798 509.331C317.046 508.661 315.527 507.493 314.428 505.971C313.746 504.67 313.331 503.246 313.208 501.781L312.208 494.781C311.848 492.351 312.468 490.101 312.528 487.641C312.567 487.369 312.55 487.091 312.48 486.825C312.409 486.559 312.286 486.309 312.118 486.091C311.776 485.804 311.334 485.664 310.888 485.701C308.078 485.751 306.378 488.701 304.408 490.701C303.27 491.856 301.909 492.767 300.408 493.381C298.608 494.121 296.408 494.641 295.658 496.441C295.358 497.191 295.398 498.041 295.078 498.791C293.818 501.791 288.448 500.791 287.078 503.791C286.688 504.631 286.718 505.681 286.078 506.341C285.438 507.001 284.238 506.991 283.248 507.151C279.338 507.791 277.448 512.301 274.108 514.431C271.298 516.231 267.678 516.191 264.648 517.591C262.968 518.371 261.478 519.591 259.698 520.101C257.918 520.611 255.908 520.341 253.998 520.391C253.795 520.372 253.589 520.395 253.395 520.459C253.2 520.522 253.021 520.625 252.868 520.761C252.75 520.942 252.671 521.147 252.639 521.361C252.606 521.575 252.619 521.793 252.678 522.001C253.605 527.914 256.055 533.484 259.788 538.163C263.521 542.841 268.408 546.466 273.968 548.681C274.614 548.887 275.227 549.183 275.788 549.561C277.488 550.831 277.788 553.561 279.718 554.461C280.415 554.707 281.166 554.754 281.888 554.599C282.609 554.443 283.274 554.091 283.808 553.581C284.873 552.556 285.875 551.467 286.808 550.321C288.571 548.481 290.884 547.263 293.398 546.851C295.718 546.481 298.308 546.751 300.188 545.321C300.957 544.615 301.673 543.853 302.328 543.041C303.721 541.742 305.374 540.753 307.178 540.141C312.107 538.194 317.317 537.049 322.608 536.751C327.538 536.481 332.608 536.931 337.268 535.331C338.478 534.956 339.594 534.325 340.538 533.481C341.54 532.398 342.285 531.102 342.718 529.691C344.4 524.779 344.731 519.506 343.678 514.421Z" fill="#FF0000"/>
<path d="M319.552 486.832C320.932 486.702 322.322 486.832 323.712 486.832C325.342 486.832 326.952 486.432 328.582 486.422C331.163 486.464 333.663 487.33 335.718 488.893C337.772 490.456 339.273 492.635 340.002 495.112C340.139 495.507 340.163 495.933 340.072 496.342C340.018 496.544 339.894 496.719 339.721 496.837C339.548 496.954 339.339 497.006 339.132 496.982C338.591 495.503 337.883 494.09 337.022 492.772C335.472 490.656 333.263 489.115 330.742 488.392C328.228 487.68 325.58 487.584 323.022 488.112C321.952 488.312 320.912 488.592 319.872 488.882L314.872 490.262C313.952 490.512 313.022 490.762 312.132 491.092C311.442 491.352 310.262 492.302 309.582 492.342C308.662 492.342 309.402 491.542 309.812 491.002C310.628 489.888 311.771 489.056 313.082 488.622C315.16 487.771 317.332 487.17 319.552 486.832Z" fill="#FF0000"/>
<path d="M332.17 543.061C333.38 546.941 334.59 550.831 336.11 554.601C338.826 561.157 342.25 567.397 346.32 573.211C348.941 577.04 351.758 580.732 354.76 584.271C358.51 588.701 362.7 593.161 364.04 598.811C364.81 602.091 364.55 605.501 364.87 608.811C365.19 612.121 366.28 615.691 368.98 617.691C370.92 619.111 373.39 619.541 375.76 619.921C377.45 620.191 379.57 620.281 380.46 618.811C380.762 618.208 380.922 617.545 380.93 616.871L381.33 611.981C381.42 610.921 381.8 609.571 382.85 609.521C383.9 609.471 384.45 610.881 385.35 611.521C386.55 612.361 388.35 611.521 389.01 610.251C389.553 608.875 389.589 607.35 389.11 605.951C388.378 603.169 387.067 600.573 385.263 598.333C383.459 596.092 381.202 594.258 378.64 592.951C376.857 592.23 375.146 591.343 373.53 590.301C371.89 588.877 370.533 587.157 369.53 585.231C360.24 569.961 350.91 554.601 344.37 537.961C343.08 534.991 342.205 531.859 341.77 528.651C341.46 525.381 341.96 522.091 342.18 518.811C342.567 512.919 342.021 507.002 340.56 501.281C340.241 499.777 339.673 498.337 338.88 497.021C336.19 492.921 329.88 492.321 325.88 495.141C324.405 496.273 323.183 497.7 322.289 499.33C321.396 500.96 320.851 502.759 320.69 504.611C320.4 507.931 322.32 511.371 323.28 514.461C326.233 524.007 329.196 533.541 332.17 543.061Z" fill="#A1616A"/>
<path d="M388.129 457.578C388.279 456.018 386.879 454.578 385.289 453.578C383.614 452.72 382.006 451.737 380.479 450.638C379.059 449.408 378.279 447.808 376.859 446.578C375.245 445.349 373.412 444.436 371.459 443.888C367.304 442.431 362.942 441.651 358.539 441.578C354.089 441.578 349.539 442.578 346.189 444.848C345.362 445.368 344.648 446.048 344.089 446.848C343.561 447.808 343.221 448.86 343.089 449.948C342.291 453.303 341.21 456.585 339.859 459.758C338.469 463.288 336.989 466.948 333.719 469.678C330.219 472.588 324.869 474.268 322.559 477.788C322.303 478.101 322.124 478.469 322.036 478.863C321.947 479.257 321.952 479.666 322.049 480.058C322.379 480.948 323.439 481.558 324.419 482.118C330.099 485.378 334.999 489.608 337.519 494.658C340.039 499.708 339.969 505.658 336.379 510.308C335.059 512.028 333.239 514.068 334.529 515.798C336.529 518.428 343.219 516.918 344.779 519.698C345.269 520.588 344.979 521.598 344.979 522.568C344.979 525.488 347.789 528.078 351.199 529.428C354.609 530.778 358.559 531.098 362.399 531.268C363.418 528.977 363.519 526.381 362.679 524.018C362.423 523.508 362.322 522.935 362.389 522.368C362.675 521.739 363.12 521.194 363.679 520.788C367.779 516.908 366.909 511.208 364.449 506.598C361.989 501.988 358.149 497.778 356.719 492.928C356.009 490.518 356.009 487.808 357.919 485.808C359.015 484.846 360.197 483.986 361.449 483.238C363.686 481.72 365.409 479.558 366.389 477.038C367.539 473.848 367.389 470.038 370.729 467.888C373.939 465.888 378.449 466.468 381.999 465.098C384.729 464.018 387.909 459.868 388.129 457.578Z" fill="#919191"/>
<path d="M582.032 614.271C566.782 607.961 562.302 603.401 562.302 594.271C562.302 587.271 565.382 579.191 578.882 579.191C586.344 579.082 593.675 581.168 599.962 585.191L604.352 573.581C599.262 570.581 592.082 567.791 581.562 567.441V550.441H572.692V568.141C556.562 570.771 547.222 581.811 547.222 596.361C547.222 611.611 556.222 619.681 574.142 626.691C587.122 631.981 593.912 637.941 593.912 647.581C593.912 657.581 585.502 664.761 573.052 664.761C563.242 664.761 552.122 661.431 545.812 657.221L541.602 668.961C547.742 673.351 558.262 676.501 568.422 676.681V694.381H583.512V676.151C601.512 673.151 611.202 660.151 611.202 646.351C611.202 630.751 600.092 621.631 582.032 614.271Z" fill="url(#paint1_linear_1252_173)"/>
<path d="M568.461 690.379V672.679C558.301 672.499 547.781 669.349 541.641 664.959L545.851 653.219C552.161 657.429 563.281 660.759 573.091 660.759C585.541 660.759 593.911 653.579 593.911 643.579C593.911 633.939 587.081 627.979 574.101 622.719C556.221 615.719 547.181 607.639 547.181 592.389C547.181 577.839 556.521 566.799 572.651 564.169V546.469H581.521V563.469C592.041 563.819 599.221 566.619 604.311 569.609L599.921 581.169C593.634 577.146 586.304 575.059 578.841 575.169C565.341 575.169 562.261 583.239 562.261 590.249C562.261 599.359 566.741 603.919 581.991 610.249C600.051 617.609 611.161 626.729 611.161 642.329C611.161 656.179 601.521 669.149 583.471 672.129V690.379H568.461Z" fill="#FF0000"/>
</g>
<defs>
<linearGradient id="paint0_linear_1252_173" x1="305.809" y1="425.059" x2="305.809" y2="234.159" gradientUnits="userSpaceOnUse">
<stop stop-color="#808080" stop-opacity="0.25"/>
<stop offset="0.54" stop-color="#808080" stop-opacity="0.12"/>
<stop offset="1" stop-color="#808080" stop-opacity="0.1"/>
</linearGradient>
<linearGradient id="paint1_linear_1252_173" x1="541.642" y1="622.421" x2="611.202" y2="622.421" gradientUnits="userSpaceOnUse">
<stop stop-color="#808080" stop-opacity="0.25"/>
<stop offset="0.54" stop-color="#808080" stop-opacity="0.12"/>
<stop offset="1" stop-color="#808080" stop-opacity="0.1"/>
</linearGradient>
<rect width="1177.82" height="725.16" fill="white"/>
</defs>
</svg>
