<svg width="546" height="524" viewBox="0 0 546 524" fill="none" xmlns="http://www.w3.org/2000/svg">
<path d="M491.306 507.166C493.372 507.296 494.514 504.729 492.951 503.233L492.795 502.615C492.815 502.565 492.836 502.516 492.857 502.466C494.946 497.484 502.027 497.519 504.098 502.508C505.937 506.936 508.278 511.372 508.854 516.054C509.112 518.121 508.996 520.226 508.537 522.254C512.846 512.844 515.113 502.568 515.113 492.234C515.113 489.637 514.97 487.041 514.68 484.451C514.441 482.332 514.112 480.227 513.685 478.14C511.379 466.863 506.387 456.122 499.185 447.151C495.723 445.258 492.836 442.3 491.092 438.754C490.466 437.475 489.975 436.1 489.742 434.698C490.136 434.75 491.228 428.749 490.931 428.381C491.48 427.548 492.462 427.134 493.062 426.321C496.044 422.278 500.153 422.984 502.298 428.478C506.88 430.791 506.925 434.626 504.113 438.315C502.324 440.662 502.079 443.837 500.509 446.35C500.671 446.557 500.839 446.757 501 446.963C503.961 450.761 506.522 454.843 508.681 459.132C508.071 454.366 508.972 448.624 510.507 444.922C512.256 440.705 515.532 437.153 518.418 433.507C521.884 429.128 528.991 431.039 529.602 436.591C529.608 436.645 529.614 436.698 529.619 436.752C529.191 436.994 528.771 437.251 528.361 437.522C526.021 439.069 526.83 442.696 529.602 443.124L529.664 443.133C529.509 444.677 529.245 446.208 528.857 447.713C532.559 462.028 524.567 467.243 513.156 467.477C512.904 467.606 512.658 467.735 512.406 467.858C513.562 471.113 514.486 474.452 515.171 477.837C515.784 480.827 516.211 483.85 516.45 486.886C516.747 490.716 516.721 494.565 516.398 498.389L516.417 498.253C517.238 494.042 519.524 490.109 522.844 487.383C527.79 483.32 534.777 481.824 540.112 478.559C542.681 476.987 545.972 479.018 545.523 481.996L545.502 482.138C544.707 482.461 543.932 482.836 543.183 483.256C542.754 483.498 542.334 483.754 541.924 484.026C539.585 485.573 540.393 489.2 543.165 489.628L543.228 489.637C543.273 489.644 543.312 489.65 543.357 489.657C541.994 492.892 540.096 495.896 537.719 498.486C535.404 510.983 525.463 512.169 514.828 508.529H514.822C513.659 513.593 511.961 518.541 509.778 523.256H491.757C491.693 523.055 491.635 522.849 491.576 522.648C493.243 522.752 494.922 522.655 496.563 522.351C495.226 520.711 493.889 519.057 492.552 517.417C492.52 517.384 492.494 517.352 492.468 517.32C491.79 516.48 491.105 515.647 490.427 514.807L490.426 514.806C490.384 512.229 490.694 509.659 491.306 507.166Z" fill="#F2F2F2"/>
<path d="M159.754 522.311C159.754 522.971 160.284 523.501 160.944 523.501H544.234C544.894 523.501 545.424 522.971 545.424 522.311C545.424 521.651 544.894 521.121 544.234 521.121H160.944C160.284 521.121 159.754 521.651 159.754 522.311Z" fill="#CCCCCC"/>
<path d="M217.915 522.993H41.4899C19.978 522.993 2.47656 505.491 2.47656 483.979V104.83C2.47656 83.3178 19.978 65.8164 41.4899 65.8164H217.915C239.426 65.8164 256.928 83.3178 256.928 104.83V483.979C256.928 505.491 239.426 522.993 217.915 522.993Z" fill="#919191"/>
<path d="M256.928 205.281C256.018 205.281 255.277 206.021 255.277 206.932V259.746C255.277 260.656 256.018 261.397 256.928 261.397C257.838 261.397 258.578 260.656 258.578 259.746V206.932C258.578 206.021 257.838 205.281 256.928 205.281Z" fill="#919191"/>
<path d="M253.212 104.831V483.973C253.212 502.697 238.638 518.013 220.211 519.202H220.202C219.93 519.218 219.658 519.235 219.377 519.243C218.89 519.268 218.403 519.276 217.908 519.276C217.908 519.276 216.093 519.144 212.775 518.896C209.425 518.649 204.548 518.278 198.466 517.791C196.642 517.65 194.719 517.494 192.689 517.329C188.646 516.998 184.206 516.635 179.444 516.223C177.546 516.066 175.582 515.893 173.577 515.719C163.328 514.836 151.849 513.805 139.743 512.633C137.696 512.443 135.633 512.245 133.554 512.039C133.009 511.981 132.456 511.932 131.903 511.874C123.271 511.024 6.1875 488.396 6.1875 483.973V104.831C6.1875 85.3305 21.9906 69.5273 41.4907 69.5273H62.567C65.934 69.5273 68.6407 72.1516 68.9295 75.5102C68.9543 75.7331 68.979 75.9558 69.0203 76.1787C69.631 79.5539 72.7256 81.9058 76.1585 81.9058H183.241C186.673 81.9058 189.768 79.5539 190.379 76.1787C190.42 75.9558 190.445 75.7331 190.47 75.5102C190.758 72.1516 193.465 69.5273 196.832 69.5273H217.908C237.408 69.5273 253.212 85.3305 253.212 104.831Z" fill="white"/>
<path d="M1.65045 165.668C0.7402 165.668 0 166.408 0 167.318V180.522C0 181.432 0.74021 182.173 1.65045 182.173C2.56069 182.173 3.3009 181.432 3.3009 180.522V167.318C3.3009 166.408 2.56069 165.668 1.65045 165.668Z" fill="#919191"/>
<path d="M1.65045 205.281C0.7402 205.281 0 206.021 0 206.932V232.514C0 233.424 0.74021 234.164 1.65045 234.164C2.56069 234.164 3.3009 233.424 3.3009 232.514V206.932C3.3009 206.021 2.56069 205.281 1.65045 205.281Z" fill="#919191"/>
<path d="M1.65045 241.59C0.7402 241.59 0 242.33 0 243.24V268.822C0 269.733 0.74021 270.473 1.65045 270.473C2.56069 270.473 3.3009 269.733 3.3009 268.822V243.24C3.3009 242.33 2.56069 241.59 1.65045 241.59Z" fill="#919191"/>
<path d="M61.9947 75.3086H30.4313C30.26 75.3086 30.1211 75.4475 30.1211 75.6188V79.1245C30.1211 79.2958 30.26 79.4347 30.4313 79.4347H61.9947C62.1661 79.4347 62.3049 79.2958 62.3049 79.1245V75.6188C62.3049 75.4475 62.1661 75.3086 61.9947 75.3086Z" fill="#E6E6E6"/>
<path d="M202.051 79.4339C203.874 79.4339 205.352 77.956 205.352 76.1329C205.352 74.3099 203.874 72.832 202.051 72.832C200.228 72.832 198.75 74.3099 198.75 76.1329C198.75 77.956 200.228 79.4339 202.051 79.4339Z" fill="#E6E6E6"/>
<path d="M211.125 79.4339C212.948 79.4339 214.426 77.956 214.426 76.1329C214.426 74.3099 212.948 72.832 211.125 72.832C209.302 72.832 207.824 74.3099 207.824 76.1329C207.824 77.956 209.302 79.4339 211.125 79.4339Z" fill="#E6E6E6"/>
<path d="M220.203 79.4339C222.026 79.4339 223.504 77.956 223.504 76.1329C223.504 74.3099 222.026 72.832 220.203 72.832C218.38 72.832 216.902 74.3099 216.902 76.1329C216.902 77.956 218.38 79.4339 220.203 79.4339Z" fill="#E6E6E6"/>
<path d="M199.289 298.516H59.2891C57.0835 298.516 55.2891 296.721 55.2891 294.516C55.2891 292.31 57.0835 290.516 59.2891 290.516H199.289C201.495 290.516 203.289 292.31 203.289 294.516C203.289 296.721 201.495 298.516 199.289 298.516Z" fill="#E6E6E6"/>
<path d="M129.789 453.516C161.822 453.516 187.789 427.548 187.789 395.516C187.789 363.483 161.822 337.516 129.789 337.516C97.7565 337.516 71.7891 363.483 71.7891 395.516C71.7891 427.548 97.7565 453.516 129.789 453.516Z" fill="#FF0000"/>
<path d="M139.01 376.579C134.115 376.78 128.581 377.116 124.963 380.872C121.82 384.135 121.131 388.978 124.319 392.461C127.514 395.954 132.483 396.427 136.167 399.152C140.493 402.351 139.859 408.681 135.673 411.713C130.737 415.289 124.364 413.622 119.851 410.22C118.695 409.348 117.573 411.301 118.716 412.163C122.759 415.211 128.034 416.908 133.033 415.449C137.545 414.133 141.042 410.454 141.398 405.669C141.567 403.386 140.918 401.068 139.498 399.265C137.999 397.362 135.84 396.191 133.657 395.238C129.9 393.597 123.431 391.475 124.523 386.134C125.847 379.66 133.727 379.046 139.01 378.829C140.453 378.77 140.46 376.52 139.01 376.579Z" fill="white"/>
<path d="M129.927 373.516L129.711 422.91C129.705 424.358 131.955 424.36 131.961 422.91L132.177 373.516C132.183 372.068 129.933 372.067 129.927 373.516Z" fill="white"/>
<path d="M437.085 0H151.125C140.635 0 132.105 8.52997 132.105 19.02V214.98C132.105 225.47 140.635 234 151.125 234H437.085C447.575 234 456.105 225.47 456.105 214.98V19.02C456.105 8.52997 447.575 0 437.085 0Z" fill="white"/>
<path d="M292.789 116.516C310.462 116.516 324.789 102.189 324.789 84.5156C324.789 66.8425 310.462 52.5156 292.789 52.5156C275.116 52.5156 260.789 66.8425 260.789 84.5156C260.789 102.189 275.116 116.516 292.789 116.516Z" fill="#FF0000"/>
<path d="M298.862 70.2352C294.901 70.3984 290.442 70.6495 287.445 73.5973C284.963 76.0391 284.095 79.8404 286.376 82.7154C288.777 85.7424 292.771 86.3168 295.906 88.2512C297.854 89.4534 299.145 91.2748 299.187 93.6154C299.226 95.8068 298.215 97.8542 296.524 99.2276C292.376 102.597 286.719 101.202 282.795 98.2554C282.023 97.6756 281.274 98.9773 282.038 99.5506C285.288 101.991 289.473 103.409 293.517 102.359C297.239 101.392 300.238 98.4637 300.641 94.5507C301.066 90.4264 298.358 87.6182 294.847 86.0071C291.637 84.5345 286.008 82.9655 286.539 78.3907C287.213 72.574 294.334 71.9218 298.862 71.7352C299.824 71.6955 299.829 70.1953 298.862 70.2352Z" fill="white"/>
<path d="M291.977 67.5174L291.797 108.676C291.793 109.641 293.293 109.642 293.297 108.676L293.477 67.5174C293.481 66.5521 291.981 66.5509 291.977 67.5174Z" fill="white"/>
<path d="M437.085 0H151.125C140.635 0 132.105 8.52997 132.105 19.02V214.98C132.105 225.47 140.635 234 151.125 234H437.085C447.575 234 456.105 225.47 456.105 214.98V19.02C456.105 8.52997 447.575 0 437.085 0ZM454.105 214.98C454.105 224.37 446.475 232 437.085 232H151.125C141.735 232 134.105 224.37 134.105 214.98V19.02C134.105 9.63001 141.735 2 151.125 2H437.085C446.475 2 454.105 9.63 454.105 19.02V214.98Z" fill="#919191"/>
<path d="M261.136 19.3516H233.076C231.666 19.3516 230.516 20.5016 230.516 21.9116C230.516 23.3315 231.666 24.4816 233.076 24.4816H261.136C262.546 24.4816 263.696 23.3316 263.696 21.9116C263.696 20.5016 262.546 19.3516 261.136 19.3516Z" fill="#E6E6E6"/>
<path d="M308.136 19.3516H280.076C278.666 19.3516 277.516 20.5016 277.516 21.9116C277.516 23.3315 278.666 24.4816 280.076 24.4816H308.136C309.546 24.4816 310.696 23.3316 310.696 21.9116C310.696 20.5016 309.546 19.3516 308.136 19.3516Z" fill="#E6E6E6"/>
<path d="M355.136 19.3516H327.076C325.666 19.3516 324.516 20.5016 324.516 21.9116C324.516 23.3315 325.666 24.4816 327.076 24.4816H355.136C356.546 24.4816 357.696 23.3316 357.696 21.9116C357.696 20.5016 356.546 19.3516 355.136 19.3516Z" fill="#E6E6E6"/>
<path d="M401.415 134.516H186.795C177.865 134.516 170.605 141.776 170.605 150.706V165.326C170.605 174.256 177.865 181.516 186.795 181.516H401.415C410.345 181.516 417.605 174.256 417.605 165.326V150.706C417.605 141.776 410.345 134.516 401.415 134.516Z" fill="#FF0000"/>
<path d="M73.1791 211.492L64.9492 207.593C68.3248 212.304 71.2334 219.661 72.7906 225.516C75.4271 220.062 79.6773 213.39 83.8843 209.404L75.1862 211.641C80.546 185.373 100.705 166.516 123.791 166.516V164.516C99.6774 164.516 78.6516 184.163 73.1791 211.492Z" fill="#919191"/>
<path d="M111.059 251.516H59.0586C56.853 251.516 55.0586 249.721 55.0586 247.516C55.0586 245.31 56.853 243.516 59.0586 243.516H111.059C113.264 243.516 115.059 245.31 115.059 247.516C115.059 249.721 113.264 251.516 111.059 251.516Z" fill="#E6E6E6"/>
<path d="M456.977 238.488L456.453 279.327L446.291 315.732L438.168 312.702L441.775 279.333L441.301 234.176L456.977 238.488Z" fill="#FFB6B6"/>
<path d="M446.255 321.602C447.208 316.367 445.461 311.665 442.353 311.099C439.245 310.533 435.952 314.318 434.999 319.553C434.046 324.788 435.793 329.49 438.901 330.056C442.009 330.622 445.302 326.837 446.255 321.602Z" fill="#FFB6B6"/>
<path d="M444.646 189.859C444.646 189.859 462.054 190.099 462.039 199.346C462.031 204.567 460.909 251.969 457.789 280.766C455.383 302.972 450.789 308.766 450.789 308.766L439.789 283.766L444.646 189.859Z" fill="#E6E6E6"/>
<path d="M444.198 273.299H385.41C390.338 262.304 393.367 251.832 388.631 243.502L444.198 240.281C441.421 251.526 441.082 262.561 444.198 273.299Z" fill="#FFB6B6"/>
<path d="M436.95 175.857L413.596 174.246L403.932 186.326L399.033 187.216C391.689 188.552 386.46 195.105 386.788 202.562L388.694 245.875L444.514 249.945L457.888 193.543L441.782 187.131L436.95 175.857Z" fill="#E6E6E6"/>
<path d="M294.529 188.922C296.186 190.413 297.369 192.154 297.994 193.843L314.675 207.045L308.161 214.799L291.941 200.571C290.195 200.128 288.339 199.135 286.682 197.645C282.897 194.24 281.585 189.527 283.752 187.118C285.919 184.709 290.744 185.517 294.529 188.922Z" fill="#FFB6B6"/>
<path d="M412.467 200.037L348.551 243.197L302.734 211.313L309.613 198.853L345.673 219.809L378.928 194.275C390.77 183.152 405.611 185.308 412.467 200.037Z" fill="#E6E6E6"/>
<path d="M423.888 170.628C433.457 170.628 441.214 162.871 441.214 153.303C441.214 143.734 433.457 135.977 423.888 135.977C414.32 135.977 406.562 143.734 406.562 153.303C406.562 162.871 414.32 170.628 423.888 170.628Z" fill="#FFB6B6"/>
<path d="M447.438 149.045V152.405L427.898 146.905L413.248 149.975C413.078 147.745 412.418 145.555 411.318 143.615C412.083 146.727 412.169 149.134 411.358 150.375L409.388 150.785C409.068 149.915 408.448 149.155 407.638 148.695C407.558 148.645 407.458 148.605 407.368 148.635C407.228 148.685 407.218 148.865 407.218 149.005C407.238 149.745 407.258 150.485 407.288 151.225L401.628 152.405V149.045C396.198 136.827 410.51 126.255 424.538 126.145C430.868 126.096 436.588 128.705 440.738 132.845C444.878 136.995 447.438 142.715 447.438 149.045Z" fill="#919191"/>
<path d="M458.431 188.443L456.956 188.321C457.061 187.838 457.166 187.362 457.262 186.879C458.08 182.83 456.28 177.674 456.147 173.784C455.453 177.894 456.641 182.952 455.412 186.855C455.275 187.288 449.935 190.087 449.789 190.514C443.88 188.353 437.726 181.449 430.758 185.482C426.636 187.867 421.934 186.821 417.255 185.729C416.096 185.459 415.935 179.739 414.789 179.514C412.736 179.112 409.721 184.311 407.789 184.514L415.789 153.514C415.789 136.65 414.227 118.957 435.589 124.92C440.962 126.42 446.279 127.595 450.245 132.03C454.21 136.47 457.034 142.676 458.034 149.743C458.637 154.006 462.401 168.482 458.431 188.443Z" fill="#919191"/>
<path d="M444.638 500.179L435.101 500.404L429.785 457.56L443.859 457.227L444.638 500.179Z" fill="#FFB7B7"/>
<path d="M411.918 520.074C411.918 521.685 413.061 522.991 414.472 522.991H433.401C433.401 522.991 435.264 515.504 442.859 512.281L443.383 522.991H453.148L451.965 505.77C451.965 505.77 454.577 496.556 449.152 491.846C443.727 487.136 448.121 487.792 448.121 487.792L445.987 477.133L431.231 478.868L431.122 495.6L423.961 512.208L413.458 517.397C412.523 517.859 411.918 518.911 411.918 520.074Z" fill="#919191"/>
<path d="M415.623 493.196L406.455 495.834L390.441 455.741L403.97 451.848L415.623 493.196Z" fill="#FFB7B7"/>
<path d="M389.023 520.744C389.431 522.302 390.869 523.275 392.233 522.917L410.543 518.114C410.543 518.114 410.444 510.398 416.973 505.354L420.198 515.581L429.643 513.103L424.128 496.745C424.128 496.745 424.317 487.17 417.875 483.991C411.432 480.812 415.849 480.331 415.849 480.331L411.079 470.562L397.247 475.985L401.388 492.197L398.676 510.079L389.833 517.763C389.046 518.447 388.727 519.618 389.023 520.744Z" fill="#919191"/>
<path d="M438.79 270.766L444.79 272.766C454.171 290.091 458.149 313.099 457.622 340.844L446.964 465.455H429.527L416.767 326.633L394.267 378.738L410.729 465.455L394.267 467.134L361.109 376.962L384.201 272.16L438.79 270.766Z" fill="#919191"/>
<defs>
<rect width="545.563" height="523.501" fill="white"/>
</defs>
</svg>
