<svg width="800" height="619" viewBox="0 0 800 619" fill="none" xmlns="http://www.w3.org/2000/svg">
<path d="M76.857 617.294C76.8239 617.676 76.9426 618.055 77.1875 618.35C77.4323 618.645 77.7836 618.831 78.165 618.869H730.149C730.519 618.803 730.853 618.609 731.094 618.321C731.335 618.033 731.467 617.669 731.467 617.294C731.467 616.918 731.335 616.555 731.094 616.267C730.853 615.979 730.519 615.785 730.149 615.719H78.165C77.7836 615.756 77.4323 615.943 77.1875 616.238C76.9426 616.532 76.8239 616.912 76.857 617.294Z" fill="#D6D6E3"/>
<path d="M427.193 461.887C426.245 468.423 422.975 474.399 417.981 478.72C412.988 483.042 406.604 485.421 400 485.421C393.396 485.421 387.012 483.042 382.018 478.72C377.024 474.399 373.754 468.423 372.806 461.887H303.234V615.718H496.765V461.887H427.193Z" fill="#D6D6E3"/>
<path d="M789.214 465.825H10.789C7.92847 465.822 5.18594 464.684 3.16324 462.662C1.14054 460.639 0.00291202 457.897 0 455.036L0 10.789C0.00291202 7.92847 1.14054 5.18594 3.16324 3.16324C5.18594 1.14054 7.92847 0.00291202 10.789 0H789.214C792.074 0.00370594 794.816 1.14169 796.838 3.1643C798.86 5.18691 799.997 7.92899 800 10.789V455.036C799.997 457.897 798.859 460.639 796.837 462.662C794.814 464.684 792.072 465.822 789.211 465.825H789.214Z" fill="#090814"/>
<path d="M781.837 18.0039H20.0898V447.823H781.837V18.0039Z" fill="white"/>
<path d="M150.264 157.307C142.721 157.307 135.347 155.071 129.075 150.88C122.803 146.69 117.915 140.733 115.028 133.765C112.142 126.796 111.386 119.127 112.858 111.729C114.329 104.331 117.962 97.5354 123.295 92.2016C128.629 86.8679 135.425 83.2356 142.823 81.764C150.221 80.2925 157.889 81.0478 164.858 83.9345C171.827 86.8212 177.783 91.7096 181.974 97.9816C186.165 104.253 188.401 111.627 188.401 119.17C188.401 129.285 184.383 138.985 177.231 146.137C170.079 153.289 160.378 157.307 150.264 157.307ZM150.264 83.6612C143.241 83.6611 136.376 85.7434 130.537 89.6449C124.697 93.5464 120.146 99.0918 117.458 105.58C114.771 112.068 114.067 119.208 115.437 126.096C116.807 132.983 120.189 139.31 125.154 144.277C130.12 149.243 136.447 152.625 143.335 153.995C150.223 155.365 157.362 154.662 163.85 151.975C170.339 149.287 175.884 144.736 179.786 138.897C183.688 133.058 185.771 126.193 185.771 119.17C185.771 109.753 182.03 100.722 175.371 94.0627C168.712 87.4037 159.681 83.6625 150.264 83.6623V83.6612Z" fill="#919191"/>
<path d="M165.078 139.388C164.079 139.388 163.121 138.992 162.414 138.287C161.708 137.581 161.31 136.624 161.309 135.625V114.225C161.31 113.228 161.706 112.271 162.411 111.566C163.117 110.86 164.073 110.463 165.07 110.462H165.078C166.075 110.463 167.032 110.86 167.737 111.565C168.443 112.271 168.839 113.227 168.841 114.225V135.625C168.839 136.623 168.443 137.579 167.737 138.285C167.032 138.99 166.075 139.387 165.078 139.388ZM155.254 139.388C154.755 139.393 154.261 139.3 153.799 139.113C153.338 138.926 152.917 138.65 152.562 138.3C152.208 137.951 151.926 137.534 151.732 137.075C151.539 136.616 151.439 136.123 151.436 135.625V124.098C151.438 123.101 151.834 122.144 152.54 121.439C153.245 120.734 154.201 120.337 155.199 120.336H155.253C156.25 120.337 157.206 120.734 157.911 121.439C158.617 122.144 159.013 123.101 159.014 124.098V135.625C159.013 136.622 158.617 137.579 157.912 138.284C157.207 138.99 156.251 139.387 155.254 139.388ZM145.335 139.388C144.336 139.388 143.378 138.992 142.671 138.287C141.965 137.581 141.567 136.624 141.566 135.625V102.716C141.567 101.719 141.963 100.762 142.668 100.057C143.374 99.3514 144.33 98.9544 145.328 98.9531H145.335C146.332 98.9544 147.288 99.3514 147.994 100.057C148.699 100.762 149.095 101.719 149.096 102.716V135.625C149.095 136.623 148.699 137.579 147.994 138.284C147.288 138.99 146.332 139.387 145.335 139.388ZM135.454 139.388C134.959 139.389 134.469 139.292 134.012 139.103C133.555 138.914 133.14 138.636 132.79 138.287C132.44 137.937 132.163 137.522 131.973 137.065C131.784 136.608 131.687 136.118 131.688 135.623V130.68C131.688 129.682 132.084 128.725 132.79 128.02C133.495 127.314 134.452 126.918 135.45 126.918C136.448 126.918 137.405 127.314 138.111 128.02C138.816 128.725 139.212 129.682 139.212 130.68V135.622C139.211 136.62 138.815 137.576 138.11 138.281C137.404 138.987 136.448 139.384 135.451 139.385L135.454 139.388Z" fill="#FF0000"/>
<path d="M302 114.965H218C216.143 114.965 214.363 114.227 213.05 112.915C211.737 111.602 211 109.821 211 107.965C211 106.108 211.737 104.328 213.05 103.015C214.363 101.702 216.143 100.965 218 100.965H302C303.857 100.965 305.637 101.702 306.95 103.015C308.263 104.328 309 106.108 309 107.965C309 109.821 308.263 111.602 306.95 112.915C305.637 114.227 303.857 114.965 302 114.965Z" fill="#E6E6E6"/>
<path d="M370.646 137.375H216.425C213.425 137.375 211 134.241 211 130.375C211 126.509 213.429 123.375 216.425 123.375H370.646C373.646 123.375 376.071 126.509 376.071 130.375C376.071 134.241 373.642 137.375 370.646 137.375Z" fill="#E6E6E6"/>
<path d="M473.161 157.307C465.618 157.307 458.245 155.07 451.973 150.88C445.701 146.689 440.813 140.733 437.926 133.764C435.04 126.795 434.285 119.127 435.756 111.729C437.228 104.33 440.86 97.5349 446.194 92.2013C451.528 86.8676 458.324 83.2354 465.722 81.7639C473.12 80.2925 480.788 81.0479 487.757 83.9347C494.726 86.8214 500.682 91.7098 504.873 97.9817C509.063 104.254 511.3 111.627 511.299 119.17C511.299 129.285 507.281 138.985 500.129 146.137C492.977 153.289 483.276 157.307 473.161 157.307ZM473.161 83.6613C466.139 83.6613 459.274 85.7437 453.434 89.6454C447.595 93.547 443.044 99.0925 440.356 105.581C437.669 112.069 436.966 119.208 438.336 126.096C439.706 132.984 443.087 139.311 448.053 144.277C453.019 149.243 459.346 152.625 466.234 153.995C473.121 155.365 480.261 154.662 486.749 151.975C493.237 149.287 498.783 144.736 502.685 138.897C506.587 133.058 508.669 126.193 508.669 119.17C508.669 114.507 507.751 109.89 505.967 105.582C504.182 101.274 501.567 97.3596 498.269 94.0623C494.972 90.7651 491.058 88.1496 486.75 86.3651C482.442 84.5807 477.824 83.6613 473.161 83.6613Z" fill="#919191"/>
<path d="M483.676 112.55L476.241 123.919C476.839 124.644 477.164 125.555 477.16 126.494C477.144 127.568 476.705 128.592 475.94 129.345C475.175 130.099 474.144 130.521 473.07 130.521C471.996 130.521 470.965 130.099 470.2 129.345C469.434 128.592 468.996 127.568 468.979 126.494C468.981 126.231 469.005 125.968 469.05 125.709L464.143 122.851C463.51 123.464 462.694 123.856 461.819 123.966C460.944 124.076 460.057 123.9 459.291 123.463L454.07 128.354V133.23C454.073 134.193 454.457 135.117 455.137 135.798C455.818 136.48 456.74 136.865 457.703 136.87H488.615C489.58 136.866 490.504 136.481 491.187 135.798C491.869 135.116 492.254 134.192 492.258 133.227V115.149L487.264 111.828C486.763 112.218 486.178 112.486 485.555 112.611C484.933 112.736 484.289 112.715 483.676 112.55Z" fill="#FF0000"/>
<path d="M461.305 115.849C462.39 115.849 463.431 116.28 464.198 117.047C464.965 117.814 465.396 118.855 465.396 119.94V120.466L470.515 123.332C471.246 122.733 472.162 122.405 473.106 122.406C473.404 122.408 473.702 122.439 473.993 122.5L481.444 110.966C481.073 110.443 480.831 109.839 480.737 109.205C480.642 108.57 480.699 107.923 480.903 107.314C481.106 106.706 481.45 106.154 481.907 105.704C482.364 105.254 482.921 104.918 483.532 104.723C484.143 104.528 484.792 104.481 485.425 104.584C486.058 104.687 486.657 104.939 487.175 105.317C487.693 105.696 488.114 106.192 488.404 106.764C488.694 107.336 488.845 107.968 488.844 108.61C488.844 108.935 488.807 109.259 488.734 109.576L492.259 111.931V105.108C492.255 104.143 491.87 103.219 491.188 102.536C490.506 101.854 489.581 101.469 488.616 101.465H457.701C456.737 101.469 455.814 101.854 455.133 102.537C454.452 103.219 454.069 104.144 454.066 105.108V124.651L457.474 121.385C457.246 120.767 457.17 120.104 457.254 119.451C457.337 118.797 457.577 118.174 457.954 117.634C458.33 117.094 458.832 116.652 459.415 116.348C459.999 116.043 460.648 115.884 461.306 115.885L461.305 115.849Z" fill="#FF0000"/>
<path d="M624.898 114.965H540.898C539.042 114.965 537.261 114.227 535.949 112.915C534.636 111.602 533.898 109.821 533.898 107.965C533.898 106.108 534.636 104.328 535.949 103.015C537.261 101.702 539.042 100.965 540.898 100.965H624.898C626.755 100.965 628.535 101.702 629.848 103.015C631.161 104.328 631.898 106.108 631.898 107.965C631.898 109.821 631.161 111.602 629.848 112.915C628.535 114.227 626.755 114.965 624.898 114.965Z" fill="#E6E6E6"/>
<path d="M693.544 137.375H539.323C536.323 137.375 533.898 134.241 533.898 130.375C533.898 126.509 536.327 123.375 539.323 123.375H693.544C696.544 123.375 698.969 126.509 698.969 130.375C698.969 134.241 696.54 137.375 693.544 137.375Z" fill="#E6E6E6"/>
<path d="M157.547 195.493C155.133 195.009 152.677 194.768 150.215 194.774C140.419 194.764 130.996 198.523 123.897 205.273C116.798 212.022 112.569 221.245 112.086 231.028C111.602 240.811 114.902 250.406 121.3 257.822C127.699 265.239 136.706 269.909 146.454 270.865C156.203 271.821 165.945 268.99 173.663 262.957C181.38 256.925 186.48 248.154 187.907 238.463C189.333 228.772 186.976 218.904 181.323 210.904C175.671 202.904 167.157 197.386 157.547 195.493ZM160.124 266.933C155.245 268.352 150.118 268.706 145.09 267.972C140.062 267.238 135.251 265.433 130.982 262.678C126.712 259.923 123.085 256.282 120.344 252.004C117.604 247.725 115.815 242.907 115.098 237.877C114.381 232.847 114.753 227.721 116.189 222.847C117.625 217.973 120.092 213.465 123.421 209.627C126.751 205.789 130.867 202.711 135.489 200.602C140.112 198.492 145.134 197.401 150.215 197.401C151.264 197.401 152.303 197.451 153.332 197.531C161.571 198.26 169.296 201.846 175.172 207.667C181.048 213.489 184.705 221.181 185.511 229.413C186.317 237.645 184.221 245.9 179.585 252.751C174.95 259.602 168.066 264.617 160.125 266.931L160.124 266.933Z" fill="#919191"/>
<path d="M172.395 226.165C171.136 220.646 167.738 215.852 162.947 212.836C158.157 209.82 152.365 208.828 146.844 210.078C146.305 210.201 145.744 210.352 145.254 210.504L150.345 232.875L172.716 227.793C172.622 227.272 172.518 226.704 172.395 226.165Z" fill="#FF0000"/>
<path d="M170.229 231.719L147.849 236.801L142.767 214.43C138.865 215.637 135.391 217.938 132.757 221.06C130.123 224.181 128.44 227.993 127.906 232.042C127.372 236.092 128.011 240.209 129.746 243.907C131.481 247.604 134.24 250.727 137.696 252.904C141.152 255.081 145.16 256.222 149.244 256.191C153.328 256.159 157.318 254.958 160.74 252.728C164.162 250.498 166.873 247.334 168.552 243.61C170.23 239.886 170.806 235.76 170.21 231.719H170.229Z" fill="#FF0000"/>
<path d="M302 228.707H218C216.143 228.707 214.363 227.97 213.05 226.657C211.737 225.344 211 223.564 211 221.707C211 219.851 211.737 218.07 213.05 216.757C214.363 215.445 216.143 214.707 218 214.707H302C303.857 214.707 305.637 215.445 306.95 216.757C308.263 218.07 309 219.851 309 221.707C309 223.564 308.263 225.344 306.95 226.657C305.637 227.97 303.857 228.707 302 228.707Z" fill="#E6E6E6"/>
<path d="M370.646 251.117H216.425C213.425 251.117 211 247.983 211 244.117C211 240.251 213.429 237.117 216.425 237.117H370.646C373.646 237.117 376.071 240.251 376.071 244.117C376.071 247.983 373.642 251.117 370.646 251.117Z" fill="#E6E6E6"/>
<path d="M473.163 270.862C465.619 270.863 458.245 268.627 451.973 264.437C445.7 260.247 440.811 254.291 437.924 247.322C435.037 240.353 434.281 232.685 435.752 225.286C437.223 217.888 440.855 211.092 446.188 205.758C451.522 200.424 458.318 196.791 465.716 195.319C473.114 193.847 480.783 194.602 487.752 197.489C494.721 200.375 500.678 205.264 504.868 211.536C509.059 217.808 511.296 225.182 511.296 232.725C511.295 242.839 507.278 252.538 500.127 259.69C492.975 266.842 483.276 270.861 473.163 270.862ZM473.163 197.216C466.14 197.216 459.275 199.298 453.435 203.2C447.596 207.102 443.045 212.647 440.358 219.135C437.67 225.624 436.967 232.763 438.337 239.651C439.707 246.539 443.088 252.866 448.054 257.832C453.02 262.797 459.347 266.179 466.235 267.55C473.122 268.92 480.262 268.217 486.75 265.529C493.238 262.842 498.784 258.291 502.686 252.452C506.588 246.613 508.67 239.748 508.671 232.725C508.671 223.308 504.93 214.276 498.271 207.617C491.611 200.958 482.58 197.217 473.163 197.217V197.216Z" fill="#919191"/>
<path d="M452.897 246.55C452.349 246.549 451.814 246.387 451.358 246.083C450.902 245.778 450.547 245.346 450.337 244.839C450.127 244.333 450.071 243.776 450.178 243.238C450.284 242.701 450.547 242.207 450.934 241.819L465.026 227.688C465.245 227.466 465.506 227.29 465.794 227.169C466.081 227.049 466.39 226.987 466.701 226.988C467.013 226.987 467.321 227.047 467.608 227.166C467.896 227.285 468.157 227.46 468.376 227.681L474.911 234.216C475.043 234.348 475.2 234.453 475.372 234.524C475.545 234.596 475.73 234.632 475.916 234.632C476.102 234.631 476.286 234.595 476.458 234.523C476.63 234.451 476.785 234.347 476.916 234.215L486.143 224.972C486.187 224.928 486.222 224.875 486.246 224.818C486.27 224.761 486.282 224.699 486.282 224.637C486.282 224.574 486.27 224.513 486.246 224.455C486.222 224.398 486.187 224.346 486.143 224.302L483.158 221.322C482.96 221.123 482.824 220.87 482.769 220.595C482.713 220.32 482.741 220.034 482.848 219.774C482.955 219.515 483.137 219.292 483.37 219.136C483.603 218.979 483.878 218.895 484.158 218.895H494.758C494.947 218.892 495.135 218.928 495.31 218.999C495.485 219.07 495.644 219.175 495.778 219.309C495.912 219.442 496.018 219.6 496.09 219.775C496.162 219.949 496.198 220.137 496.197 220.326V230.926C496.197 231.207 496.114 231.482 495.958 231.715C495.802 231.949 495.58 232.131 495.32 232.239C495.061 232.346 494.775 232.375 494.499 232.32C494.223 232.265 493.97 232.129 493.771 231.931L490.781 228.941C490.737 228.897 490.685 228.862 490.628 228.838C490.57 228.814 490.509 228.802 490.446 228.802C490.384 228.802 490.323 228.814 490.265 228.838C490.208 228.862 490.155 228.897 490.111 228.941L477.617 241.42C477.398 241.64 477.137 241.815 476.85 241.934C476.562 242.053 476.254 242.114 475.943 242.113C475.632 242.113 475.324 242.053 475.036 241.933C474.749 241.814 474.488 241.639 474.268 241.419L467.729 234.88C467.459 234.621 467.099 234.477 466.724 234.477C466.35 234.477 465.99 234.621 465.719 234.88L454.862 245.737C454.605 245.996 454.299 246.201 453.962 246.34C453.624 246.48 453.262 246.551 452.897 246.55Z" fill="#FF0000"/>
<path d="M624.898 228.52H540.898C539.042 228.52 537.261 227.782 535.949 226.469C534.636 225.157 533.898 223.376 533.898 221.52C533.898 219.663 534.636 217.883 535.949 216.57C537.261 215.257 539.042 214.52 540.898 214.52H624.898C626.755 214.52 628.535 215.257 629.848 216.57C631.161 217.883 631.898 219.663 631.898 221.52C631.898 223.376 631.161 225.157 629.848 226.469C628.535 227.782 626.755 228.52 624.898 228.52Z" fill="#E6E6E6"/>
<path d="M693.544 250.93H539.323C536.323 250.93 533.898 247.796 533.898 243.93C533.898 240.064 536.327 236.93 539.323 236.93H693.544C696.544 236.93 698.969 240.064 698.969 243.93C698.969 247.796 696.54 250.93 693.544 250.93Z" fill="#E6E6E6"/>
<path d="M170.97 364.436C174.398 364.436 177.178 361.656 177.178 358.228C177.178 354.799 174.398 352.02 170.97 352.02C167.541 352.02 164.762 354.799 164.762 358.228C164.762 361.656 167.541 364.436 170.97 364.436Z" fill="#FF0000"/>
<path d="M697.383 314.401V397.85H102.02V353.913C106.143 352.024 110.289 350.144 114.474 348.325C132.347 340.525 151.475 333.225 172.33 330.516C182.237 329.204 192.268 329.115 202.198 330.25C212.66 331.483 222.674 334.05 232.589 336.636C242.366 339.19 252.169 341.824 262.395 343.306C272.414 344.703 282.569 344.846 292.624 343.732C311.768 341.683 329.753 336.193 347.664 331.227C365.687 326.234 384.257 321.515 403.763 320.894C423.019 320.273 442.038 323.519 460.31 327.546C497.564 335.746 535.603 347.918 575.049 339.572C615.105 331.111 651.95 306.685 696.34 313.931C696.729 313.973 697.096 314.137 697.386 314.401H697.383Z" fill="#F2F2F2"/>
<path d="M697.695 346.359C697.442 346.637 697.12 346.842 696.762 346.954C696.404 347.066 696.023 347.082 695.657 346.998C690.327 346.13 684.93 345.732 679.53 345.809C635.881 346.359 602.321 371.441 559.641 375.192C521.161 378.571 484.941 365.214 448.76 358.234C429.96 354.606 410.578 352.682 391.232 355.148C372.032 357.587 354.019 363.192 335.932 368.168C318.512 372.957 300.409 377.41 281.548 377.631C260.811 377.879 242.136 371.777 222.902 367.131C212.902 364.71 202.637 362.794 192.038 362.608C181.801 362.509 171.589 363.638 161.621 365.969C141.182 370.608 122.768 378.869 104.839 387.086C104.51 387.244 104.146 387.313 103.783 387.286C103.442 387.282 103.109 387.181 102.822 386.995C102.536 386.81 102.308 386.547 102.164 386.237C102.091 385.939 102.133 385.624 102.281 385.355C102.429 385.086 102.673 384.882 102.964 384.784L103.784 384.412C107.897 382.523 112.034 380.643 116.209 378.824C134.039 371.024 153.124 363.724 173.923 361.015C183.808 359.703 193.816 359.613 203.723 360.749C214.16 361.982 224.15 364.549 234.04 367.135C243.794 369.689 253.572 372.323 263.773 373.805C273.768 375.202 283.898 375.345 293.929 374.231C313.029 372.182 330.968 366.692 348.835 361.726C366.814 356.733 385.335 352.014 404.797 351.393C424.006 350.772 442.979 354.018 461.207 358.045C498.37 366.245 536.316 378.417 575.666 370.072C615.625 361.611 652.378 337.185 696.661 344.431C697.05 344.473 697.416 344.637 697.705 344.901C697.893 345.098 697.997 345.36 697.995 345.632C697.994 345.905 697.886 346.165 697.695 346.359Z" fill="#FF0000"/>
<path d="M404.501 360.061C407.93 360.061 410.709 357.281 410.709 353.853C410.709 350.424 407.93 347.645 404.501 347.645C401.072 347.645 398.293 350.424 398.293 353.853C398.293 357.281 401.072 360.061 404.501 360.061Z" fill="#FF0000"/>
<path d="M680.04 352.08C683.469 352.08 686.248 349.301 686.248 345.872C686.248 342.443 683.469 339.664 680.04 339.664C676.611 339.664 673.832 342.443 673.832 345.872C673.832 349.301 676.611 352.08 680.04 352.08Z" fill="#FF0000"/>
<defs>
<rect width="800.003" height="618.867" fill="white"/>
</defs>
</svg>
