<svg width="553" height="516" viewBox="0 0 553 516" fill="none" xmlns="http://www.w3.org/2000/svg">
<path d="M372.632 365.416H174.324C157.655 365.416 144.094 351.855 144.094 335.186V136.878C144.094 120.209 157.655 106.648 174.324 106.648H372.632C389.301 106.648 402.861 120.209 402.861 136.878V335.186C402.861 351.855 389.301 365.416 372.632 365.416ZM174.324 111.485C160.299 111.485 148.931 122.854 148.931 136.878V335.186C148.931 349.21 160.299 360.579 174.324 360.579H313.233C360.062 360.579 398.025 322.617 398.025 275.788V136.878C398.025 122.854 386.656 111.485 372.632 111.485L174.324 111.485Z" fill="#F2F2F2"/>
<path d="M195.705 132.105C186.319 132.105 178.684 139.741 178.684 149.127V175.768C178.684 185.154 186.319 192.789 195.705 192.789H222.346C231.732 192.789 239.368 185.154 239.368 175.768V149.127C239.368 139.741 231.732 132.105 222.346 132.105H195.705Z" fill="#F2F2F2"/>
<path d="M195.705 207.105C186.319 207.105 178.684 214.741 178.684 224.127V250.768C178.684 260.154 186.319 267.789 195.705 267.789H222.346C231.732 267.789 239.368 260.154 239.368 250.768V224.127C239.368 214.741 231.732 207.105 222.346 207.105H195.705Z" fill="#F2F2F2"/>
<path d="M195.705 282.105C186.319 282.105 178.684 289.741 178.684 299.127V325.768C178.684 335.154 186.319 342.789 195.705 342.789H222.346C231.732 342.789 239.368 335.154 239.368 325.768V299.127C239.368 289.741 231.732 282.105 222.346 282.105H195.705Z" fill="#F2F2F2"/>
<path d="M213.373 67.1055C201.547 67.1055 191.926 76.7263 191.926 88.5526V122.122C191.926 133.948 201.547 143.569 213.373 143.569H246.942C258.769 143.569 268.389 133.948 268.389 122.122V88.5526C268.389 76.7262 258.769 67.1055 246.942 67.1055H213.373Z" fill="#FF0000"/>
<path d="M323.889 160.918C312.062 160.918 302.441 170.539 302.441 182.365V215.934C302.441 227.761 312.062 237.382 323.889 237.382H357.458C369.284 237.382 378.905 227.761 378.905 215.934V182.365C378.905 170.539 369.284 160.918 357.458 160.918H323.889Z" fill="#FF0000"/>
<path d="M275.839 498.807L269.019 498.75L266 471.832L276.065 471.917L275.839 498.807Z" fill="#A0616A"/>
<path d="M253.996 509.651C253.981 511.33 255.334 512.711 257.019 512.727L270.578 512.84L272.952 508.028L273.824 512.865L278.94 512.911L277.648 495.662L275.868 495.544L268.608 495.044L266.265 494.887L266.224 499.767L255.332 507.155C254.504 507.718 254.004 508.65 253.996 509.651Z" fill="#919191"/>
<path d="M310.542 498.807L303.722 498.75L300.703 471.832L310.768 471.917L310.542 498.807Z" fill="#A0616A"/>
<path d="M288.695 509.651C288.681 511.33 290.034 512.711 291.718 512.727L305.277 512.84L307.651 508.028L308.523 512.865L313.639 512.911L312.347 495.662L310.567 495.544L303.307 495.044L300.965 494.887L300.924 499.767L290.031 507.155C289.203 507.718 288.704 508.65 288.695 509.651Z" fill="#919191"/>
<path d="M249.082 281.176L276.725 282.049L302.914 287.868C302.914 287.868 300.295 291.069 309.024 299.799C309.024 299.799 320.664 320.168 312.516 339.954L309.024 419.102C309.024 419.102 319.205 474.896 311.426 492.653L301.146 493.296L283.749 419.746L275.27 340.536L271.196 418.52C271.196 418.52 286.781 472.047 276.94 493.296L265.805 492.653L246.754 418.52C246.754 418.52 238.606 332.971 239.77 316.676C240.934 300.381 249.082 281.176 249.082 281.176Z" fill="#919191"/>
<path d="M341.911 156.11C338.132 157.089 335.862 160.945 336.841 164.724C337.289 166.456 338.346 167.865 339.718 168.795L339.718 168.805L339.182 181.79L349.118 186.388L349.911 166.407L349.842 166.409C350.704 164.874 351.002 163.019 350.525 161.181C349.547 157.402 345.69 155.132 341.911 156.11Z" fill="#A0616A"/>
<path d="M286.376 202.451C284.289 200.382 283.078 197.577 283.033 194.526C282.972 190.434 285.022 186.72 288.518 184.591C292.544 182.139 297.578 182.387 301.343 185.222L332.546 208.715L338.106 174.871L350.043 178.714L347.195 222.784C346.995 225.866 345.253 228.582 342.534 230.048C339.815 231.514 336.589 231.477 333.904 229.95L288.811 204.295C287.905 203.779 287.089 203.158 286.376 202.451Z" fill="#919191"/>
<path d="M238.799 137.18C240.793 140.536 239.69 144.873 236.335 146.867C234.797 147.781 233.055 148.038 231.425 147.732L231.419 147.74L222.657 157.338L212.363 153.608L225.868 138.86L225.916 138.91C226.385 137.213 227.479 135.687 229.111 134.716C232.467 132.722 236.804 133.825 238.799 137.18Z" fill="#A0616A"/>
<path d="M242.583 208.785L192.498 195.256C189.516 194.45 187.199 192.205 186.3 189.249C185.402 186.294 186.076 183.139 188.105 180.809L217.11 147.508L228.293 153.183L208.413 181.132L247.112 186.417C251.782 187.055 255.531 190.423 256.664 194.998C257.648 198.971 256.489 203.052 253.564 205.916C251.385 208.05 248.55 209.19 245.61 209.189C244.606 209.189 243.59 209.056 242.583 208.785Z" fill="#919191"/>
<path d="M313.99 292.821L243.952 296.034C242.028 293.113 242.549 288.72 245.243 283.22C255.414 262.453 247.69 223.166 242.493 202.708C241.035 196.969 244.949 191.263 250.842 190.673L257.446 190.013L263.55 171.379H284.929L293.798 181.512L308.85 190.655C306.11 218.876 294.436 258.726 311.067 278.711C314.704 283.081 315.736 287.808 313.99 292.821Z" fill="#919191"/>
<path d="M271.519 171.811C283.019 171.811 292.342 162.488 292.342 150.988C292.342 139.487 283.019 130.164 271.519 130.164C260.018 130.164 250.695 139.487 250.695 150.988C250.695 162.488 260.018 171.811 271.519 171.811Z" fill="#A0616A"/>
<path d="M295.084 137.657C297.981 127.094 266.405 118.037 260.268 126.543C259.415 125.333 256.262 124.599 254.815 124.97C253.368 125.341 252.152 126.268 250.964 127.166C249.332 128.42 247.64 129.718 246.639 131.521C245.63 133.317 245.474 135.765 246.832 137.323C247.908 138.562 249.798 145.147 251.415 145.473C252.543 145.703 253.493 145.889 254.309 146.022C255.036 144.961 256.89 143.628 256.757 142.345C257.855 143.072 257.454 144.351 257.232 145.659C256.495 150.012 239.886 183.714 249.399 173.783C250.341 174.339 251.506 174.859 252.849 175.333C255.127 171.898 256.996 167.847 258.228 163.611L258.237 163.689C258.661 167.371 261.351 170.392 264.911 171.423C279.19 175.56 290.741 169.489 294.714 158.543C293.26 155.59 292.626 155.911 292.756 155.823C294.572 154.599 297.068 155.399 297.848 157.445C298.078 158.048 298.287 158.563 298.469 158.951C300.539 151.546 303.001 152.615 295.084 137.657Z" fill="#919191"/>
<path d="M285.231 129.992L283.772 122.535C283.649 121.908 283.533 121.228 283.816 120.655C284.179 119.919 285.112 119.614 285.925 119.731C286.737 119.849 287.344 120.591 288.152 120.734C290.962 121.23 294.676 118.455 295.683 125.476C296.103 128.403 300.774 128.712 302.334 131.225C303.894 133.737 304.085 137.363 301.956 139.416C300.256 141.055 297.525 141.244 295.317 140.407C293.109 139.57 291.336 137.878 289.788 136.095C288.24 134.311 286.838 132.381 285.052 130.835" fill="#919191"/>
<path d="M296.196 141.335C290.498 140.539 286.614 138.467 284.652 135.176C282.084 130.869 283.804 126.126 283.879 125.926L285.083 126.374C285.067 126.417 283.507 130.759 285.763 134.529C287.517 137.462 291.088 139.324 296.373 140.062L296.196 141.335Z" fill="#FF0000"/>
<path d="M322.932 60.7623C306.181 60.7623 292.551 47.1323 292.551 30.3812C292.551 13.63 306.181 0 322.932 0C339.683 0 353.313 13.63 353.313 30.3812C353.313 47.1323 339.683 60.7623 322.932 60.7623ZM322.932 12.1525C312.88 12.1525 304.703 20.3293 304.703 30.3812C304.703 40.4331 312.88 48.6099 322.932 48.6099C332.984 48.6099 341.161 40.4331 341.161 30.3812C341.161 20.3293 332.984 12.1525 322.932 12.1525Z" fill="#FF0000"/>
<path d="M369.677 81.4102C368.188 81.4102 366.696 80.8673 365.524 79.7665L337.009 53.0436C334.558 50.7502 334.433 46.905 336.73 44.4573C339.02 42.0007 342.865 41.8791 345.316 44.1784L373.831 70.9014C376.282 73.1948 376.406 77.0399 374.11 79.4876C372.914 80.7664 371.297 81.4102 369.677 81.4102Z" fill="#FF0000"/>
<path d="M498.552 498.127C500.618 498.257 501.76 495.69 500.197 494.194L500.041 493.576C500.062 493.526 500.082 493.477 500.103 493.427C502.192 488.445 509.273 488.48 511.344 493.469C513.183 497.897 515.524 502.333 516.1 507.015C516.358 509.082 516.242 511.187 515.784 513.215C520.092 503.805 522.359 493.529 522.359 483.195C522.359 480.598 522.217 478.002 521.926 475.412C521.687 473.293 521.358 471.188 520.931 469.101C518.626 457.824 513.633 447.083 506.431 438.112C502.969 436.219 500.082 433.261 498.338 429.715C497.712 428.436 497.221 427.061 496.988 425.659C497.382 425.711 498.474 419.71 498.177 419.342C498.726 418.509 499.708 418.095 500.308 417.282C503.29 413.238 507.399 413.944 509.544 419.439C514.127 421.752 514.171 425.587 511.359 429.276C509.571 431.623 509.325 434.798 507.755 437.311C507.917 437.517 508.085 437.718 508.246 437.924C511.207 441.722 513.768 445.804 515.927 450.093C515.317 445.327 516.218 439.585 517.754 435.883C519.502 431.666 522.778 428.114 525.664 424.468C529.13 420.089 536.237 422 536.848 427.552C536.854 427.605 536.86 427.659 536.865 427.713C536.437 427.955 536.017 428.212 535.607 428.483C533.267 430.03 534.076 433.657 536.848 434.085L536.911 434.094C536.755 435.638 536.491 437.169 536.103 438.674C539.805 452.989 531.813 458.204 520.402 458.438C520.15 458.567 519.904 458.696 519.652 458.819C520.809 462.074 521.732 465.413 522.417 468.798C523.03 471.788 523.457 474.811 523.696 477.847C523.993 481.677 523.967 485.526 523.644 489.35L523.663 489.214C524.484 485.003 526.77 481.07 530.09 478.344C535.036 474.281 542.023 472.785 547.358 469.52C549.927 467.948 553.218 469.979 552.769 472.957L552.748 473.099C551.953 473.422 551.178 473.797 550.429 474.217C550 474.459 549.58 474.715 549.17 474.987C546.831 476.534 547.639 480.161 550.411 480.588L550.474 480.598C550.519 480.605 550.558 480.611 550.603 480.618C549.24 483.853 547.342 486.857 544.965 489.447C542.65 501.944 532.709 503.13 522.075 499.49H522.068C520.905 504.554 519.207 509.502 517.024 514.217H499.003C498.939 514.016 498.881 513.81 498.823 513.609C500.489 513.713 502.168 513.616 503.809 513.312C502.472 511.672 501.135 510.018 499.798 508.378C499.766 508.345 499.74 508.313 499.714 508.281C499.036 507.441 498.351 506.608 497.673 505.768L497.673 505.767C497.63 503.19 497.94 500.62 498.552 498.127Z" fill="#F2F2F2"/>
<path d="M0 514.268C0 514.928 0.53003 515.458 1.19006 515.458H551.48C552.14 515.458 552.67 514.928 552.67 514.268C552.67 513.608 552.14 513.078 551.48 513.078H1.19006C0.53003 513.078 0 513.608 0 514.268Z" fill="#CCCCCC"/>
<defs>
<rect width="552.81" height="515.459" fill="white"/>
</defs>
</svg>
